<?xml version="1.0" standalone="no"?>
<!DOCTYPE svg PUBLIC "-//W3C//DTD SVG 1.1//EN" "http://www.w3.org/Graphics/SVG/1.1/DTD/svg11.dtd" >
<svg>
<metadata>
Created by FontForge 20110222 at Thu May 22 20:31:43 2014
 By Orthosie Webhosting
Copyright (c) 2009 by Fontsmith Ltd. All rights reserved.
</metadata>
<defs>
<font id="TelefonicaHeadlineLight" horiz-adv-x="400" >
  <font-face 
    font-family="Telefonica Headline Light"
    font-weight="300"
    font-stretch="normal"
    units-per-em="1000"
    panose-1="2 0 5 6 4 0 0 2 0 4"
    ascent="750"
    descent="-250"
    x-height="490"
    cap-height="684"
    bbox="-62 -253 1182 1147"
    underline-thickness="50"
    underline-position="-50"
    unicode-range="U+0020-FB02"
  />
<missing-glyph horiz-adv-x="642" 
d="M86 660h470v-660h-470v660zM480 612h-320l161 -240zM510 90v480l-160 -239zM480 49l-159 239l-161 -239h320zM134 90l159 241l-159 239v-480z" />
    <glyph glyph-name="fi" unicode="fi" horiz-adv-x="508" 
d="M166 0h-58v444h-90v35l90 11v71q0 86 43 129q20 20 52.5 31t80.5 11q24 0 51 -3t50 -7v-48q-20 3 -45.5 5t-49.5 2q-69 0 -97 -29q-14 -14 -20.5 -36.5t-6.5 -60.5v-65h266v-490h-58v444h-208v-444z" />
    <glyph glyph-name="fl" unicode="fl" horiz-adv-x="508" 
d="M166 0h-58v444h-90v35l90 11v71q0 86 43 129q20 20 53.5 31t87.5 11q35 0 72 -3t68 -8v-721h-58v677q-20 2 -41 3t-43 1q-69 0 -97 -29q-14 -14 -20.5 -36.5t-6.5 -60.5v-65h134v-46h-134v-444z" />
    <glyph glyph-name=".notdef" horiz-adv-x="642" 
d="M86 660h470v-660h-470v660zM480 612h-320l161 -240zM510 90v480l-160 -239zM480 49l-159 239l-161 -239h320zM134 90l159 241l-159 239v-480z" />
    <glyph glyph-name=".null" horiz-adv-x="0" 
 />
    <glyph glyph-name="nonmarkingreturn" horiz-adv-x="200" 
 />
    <glyph glyph-name="space" unicode=" " horiz-adv-x="200" 
 />
    <glyph glyph-name="nonbreakingspace" unicode="&#xa0;" horiz-adv-x="200" 
 />
    <glyph glyph-name="A" unicode="A" horiz-adv-x="560" 
d="M22 0l214 684h73l229 -684h-63l-61 187h-275l-57 -187h-60zM155 238h242l-125 384z" />
    <glyph glyph-name="B" unicode="B" horiz-adv-x="572" 
d="M370 365q72 -7 107 -55.5t35 -121.5q0 -47 -12.5 -82t-29.5 -54q-14 -14 -29 -24t-36 -16t-50 -9t-69 -3h-198v684h181q63 0 101 -12t63 -39q15 -16 25 -46t10 -65q0 -123 -98 -157zM148 52h111q34 0 59 1.5t43 5t31 10t24 16.5q35 32 35 100q0 73 -39 112q-11 10 -23 17
t-28.5 11t-39 5.5t-53.5 1.5h-120v-280zM148 383h106q85 0 120 33.5t35 93.5q0 35 -8.5 57.5t-24.5 36.5q-17 16 -46 22t-79 6h-103v-249z" />
    <glyph glyph-name="C" unicode="C" horiz-adv-x="539" 
d="M492 6q-30 -8 -68 -14t-73 -6q-142 0 -216.5 83.5t-74.5 268.5q0 178 72.5 268.5t211.5 90.5q41 0 80.5 -7.5t69.5 -18.5l-11 -49q-32 10 -65 15.5t-65 5.5q-118 0 -174.5 -75t-56.5 -228q0 -78 13 -134t41.5 -93t74.5 -54.5t112 -17.5q30 0 61 4.5t60 10.5z" />
    <glyph glyph-name="D" unicode="D" horiz-adv-x="628" 
d="M88 0v684h161q89 0 147.5 -16t97.5 -58q34 -37 54 -102t20 -163q0 -108 -25 -179t-63 -106q-65 -60 -207 -60h-185zM148 53h119q119 0 171 51q37 35 53 94.5t16 146.5q0 82 -14.5 138.5t-48.5 91.5q-31 32 -79 44t-117 12h-100v-578z" />
    <glyph glyph-name="E" unicode="E" horiz-adv-x="510" 
d="M148 52h308v-52h-368v684h360l-7 -52h-293v-259h241v-53h-241v-268z" />
    <glyph glyph-name="F" unicode="F" horiz-adv-x="472" 
d="M148 0h-60v684h351l-7 -52h-284v-259h231v-53h-231v-320z" />
    <glyph glyph-name="G" unicode="G" horiz-adv-x="614" 
d="M509 625q-33 9 -67.5 14t-71.5 5q-130 0 -189 -78t-59 -228q0 -84 16 -141t47 -92t77.5 -50t106.5 -15q24 0 55 2.5t51 6.5v237h-121v51h178v-328q-15 -5 -36 -9t-44 -7t-46 -5t-41 -2q-71 0 -127.5 19t-96 60.5t-60.5 107.5t-21 160q0 177 77.5 270.5t225.5 93.5
q42 0 83.5 -6.5t73.5 -17.5z" />
    <glyph glyph-name="H" unicode="H" horiz-adv-x="641" 
d="M494 684h59v-684h-59v320h-346v-320h-60v684h60v-311h346v311z" />
    <glyph glyph-name="I" unicode="I" horiz-adv-x="240" 
d="M90 684h60v-684h-60v684z" />
    <glyph glyph-name="J" unicode="J" horiz-adv-x="351" 
d="M38 43q12 -2 28.5 -2.5t30.5 -0.5q28 0 50.5 4.5t36.5 17.5q16 14 21 38.5t5 77.5v506h59v-501q0 -36 -2.5 -61t-7 -43t-11.5 -30t-16 -22q-19 -20 -49.5 -30.5t-78.5 -10.5q-14 0 -30.5 1.5t-29.5 3.5z" />
    <glyph glyph-name="K" unicode="K" horiz-adv-x="565" 
d="M289 403l244 -403h-67l-214 358l-104 -129v-229h-60v684h60v-379l303 379h66z" />
    <glyph glyph-name="L" unicode="L" horiz-adv-x="484" 
d="M88 684h60v-632h296v-52h-356v684z" />
    <glyph glyph-name="M" unicode="M" horiz-adv-x="783" 
d="M390 208l255 476h50v-684h-56v566l-225 -418h-53l-219 421v-569h-54v684h54z" />
    <glyph glyph-name="N" unicode="N" horiz-adv-x="666" 
d="M88 684h41l395 -575v575h54v-684h-45l-391 570v-570h-54v684z" />
    <glyph glyph-name="O" unicode="O" horiz-adv-x="640" 
d="M580 341q0 -172 -63.5 -263.5t-196.5 -91.5t-196.5 91.5t-63.5 263.5t63.5 264t196.5 92t196.5 -92t63.5 -264zM518 341q0 69 -10 124.5t-33.5 94.5t-61.5 59.5t-93 20.5q-56 0 -93.5 -20.5t-61 -59.5t-33.5 -94.5t-10 -124.5t10 -124.5t33.5 -94t61 -59t93.5 -20.5
q55 0 93 20.5t61.5 59t33.5 94t10 124.5z" />
    <glyph glyph-name="P" unicode="P" horiz-adv-x="557" 
d="M148 316h126q28 0 49 2t36.5 6.5t27 11.5t21.5 17q20 20 28.5 50.5t8.5 74.5q0 38 -9 67t-25 47q-20 23 -51.5 31.5t-87.5 8.5h-124v-316zM148 0h-60v684h190q60 0 103.5 -11.5t75.5 -42.5q23 -23 36.5 -61.5t13.5 -88.5q0 -54 -12 -93.5t-39 -68.5q-26 -27 -64 -41
t-94 -14h-150v-263z" />
    <glyph glyph-name="Q" unicode="Q" horiz-adv-x="640" 
d="M319 -14q-133 1 -196 92t-63 263t63.5 264t196.5 92t196.5 -92t63.5 -264q0 -126 -34 -208.5t-103 -119.5q39 -8 80 -23t79 -40q-3 -10 -12 -25.5t-15 -23.5l-147 69q-22 10 -41.5 13t-53.5 3h-13h-1zM518 341q0 69 -10 124.5t-33.5 94.5t-61.5 59.5t-93 20.5
q-56 0 -93.5 -20.5t-61 -59.5t-33.5 -94.5t-10 -124.5t10 -124.5t33.5 -94t61 -59t93.5 -20.5q55 0 93 20.5t61.5 59t33.5 94t10 124.5z" />
    <glyph glyph-name="R" unicode="R" horiz-adv-x="578" 
d="M148 269v-269h-60v684h191q68 0 112 -14t70 -44q21 -24 34.5 -58.5t13.5 -87.5q0 -83 -34.5 -131t-96.5 -67l146 -282h-65l-137 271q-8 -1 -20.5 -1.5t-23.5 -0.5h-130zM148 322h134q42 0 72.5 8.5t50.5 27.5q23 22 32.5 52.5t9.5 70.5q0 38 -8.5 64.5t-26.5 46.5
q-17 20 -49.5 30t-87.5 10h-127v-310z" />
    <glyph glyph-name="S" unicode="S" horiz-adv-x="523" 
d="M416 625q-69 19 -143 19q-75 0 -117.5 -27t-42.5 -89q0 -44 26 -71.5t65 -48t85 -38.5t85 -42.5t65 -61t26 -94.5q0 -95 -60 -140.5t-166 -45.5q-54 0 -97.5 7.5t-85.5 21.5l11 51q40 -13 81 -20t83 -7q48 0 80 7.5t54 24.5q20 16 31.5 40.5t11.5 58.5q0 47 -26 76
t-65 49.5t-85 38t-85 41t-65 58t-26 89.5q0 39 12 68.5t32 50.5q29 30 73 43t97 13q43 0 83.5 -6.5t73.5 -17.5z" />
    <glyph glyph-name="T" unicode="T" horiz-adv-x="550" 
d="M26 684h503l-7 -52h-216v-632h-60v632h-220v52z" />
    <glyph glyph-name="U" unicode="U" horiz-adv-x="637" 
d="M142 236q0 -55 10.5 -92t33.5 -60q43 -42 139 -42q82 0 125 38q51 47 51 156v448h54v-456q0 -66 -15.5 -110.5t-45.5 -73.5q-60 -58 -172 -58q-124 0 -182 60q-31 32 -44.5 76.5t-13.5 110.5v451h60v-448z" />
    <glyph glyph-name="V" unicode="V" horiz-adv-x="565" 
d="M480 684h59l-216 -684h-71l-226 684h61l201 -615z" />
    <glyph glyph-name="W" unicode="W" horiz-adv-x="857" 
d="M619 78l156 606h56l-177 -684h-71l-150 600l-138 -600h-76l-193 684h60l170 -614l143 614h68z" />
    <glyph glyph-name="X" unicode="X" horiz-adv-x="497" 
d="M26 0l193 341l-190 343h64l160 -298l156 298h62l-189 -341l191 -343h-65l-161 295l-156 -295h-65z" />
    <glyph glyph-name="Y" unicode="Y" horiz-adv-x="546" 
d="M463 684h61l-226 -406v-278h-60v281l-216 403h66l184 -351z" />
    <glyph glyph-name="Z" unicode="Z" horiz-adv-x="544" 
d="M56 42l361 590h-360v52h431v-42l-361 -590h365v-52h-436v42z" />
    <glyph glyph-name="a" unicode="a" horiz-adv-x="489" 
d="M368 33q-36 -22 -77 -34.5t-81 -12.5q-72 0 -118 38t-46 114q0 67 38 103q26 24 63.5 34.5t94.5 10.5h118v40q0 36 -7.5 60t-21.5 38q-15 16 -40 22.5t-59 6.5q-33 0 -68.5 -4t-68.5 -12l-4 48q35 9 73 14t73 5q99 0 141 -43q20 -20 30 -51t10 -76v-334h-47zM360 239
h-109q-47 0 -74.5 -7t-44.5 -21q-28 -24 -28 -72q0 -54 31 -78t85 -24q34 0 73 10t67 26v166z" />
    <glyph glyph-name="b" unicode="b" horiz-adv-x="515" 
d="M74 0v715h58v-250q32 18 70.5 28.5t73.5 10.5q92 0 140.5 -63t48.5 -194q0 -146 -59 -211q-46 -50 -129 -50q-42 0 -83.5 14.5t-70.5 33.5l-3 -34h-46zM132 77q28 -17 65 -28.5t72 -11.5q32 0 61 12.5t45 40.5q30 52 30 158q0 109 -38 161q-33 44 -102 44q-32 0 -68 -10
t-65 -25v-341z" />
    <glyph glyph-name="c" unicode="c" horiz-adv-x="436" 
d="M396 -2q-22 -5 -52 -8.5t-59 -3.5q-116 0 -175.5 61.5t-59.5 192.5q0 133 58.5 198.5t170.5 65.5q29 0 58.5 -4t55.5 -13l-4 -48q-26 7 -52.5 11t-49.5 4q-99 0 -138 -52t-39 -160q0 -107 42.5 -156.5t145.5 -49.5q22 0 49 3t44 7z" />
    <glyph glyph-name="d" unicode="d" horiz-adv-x="518" 
d="M250 -14q-200 0 -200 257q0 59 12 107.5t36.5 82.5t62.5 52.5t89 18.5q32 0 67.5 -8.5t68.5 -25.5v245h58v-715h-46l-3 30q-28 -18 -67.5 -31t-77.5 -13zM261 453q-84 0 -117.5 -54.5t-33.5 -154.5q0 -106 33.5 -156.5t109.5 -50.5q32 0 67.5 9t65.5 24v352
q-33 15 -64 23t-61 8z" />
    <glyph glyph-name="e" unicode="e" horiz-adv-x="495" 
d="M416 3q-12 -4 -28.5 -7t-34.5 -5.5t-36 -4t-34 -1.5q-62 0 -106.5 17.5t-72.5 51t-41 81.5t-13 109q0 58 12 106t37 82t62.5 52.5t88.5 18.5q193 0 193 -262v-9q0 -11 -12 -11h-320q1 -43 10.5 -77.5t30 -58.5t53.5 -37t82 -13q31 0 62.5 4t61.5 11zM386 268
q0 84 -32 135.5t-104 51.5t-105.5 -51t-34.5 -136h276z" />
    <glyph glyph-name="f" unicode="f" horiz-adv-x="298" 
d="M166 0h-58v444h-90v35l90 11v81q0 45 8 72.5t26 47.5q20 21 50 31t68 10q17 0 36.5 -2t33.5 -4v-49q-14 2 -31 3t-31 1q-57 0 -79 -24q-13 -14 -18 -35t-5 -59v-73h134v-46h-134v-444z" />
    <glyph glyph-name="g" unicode="g" horiz-adv-x="499" 
d="M351 481q41 -22 62.5 -61t21.5 -95q0 -85 -49.5 -132t-137.5 -47q-49 0 -86 14q-18 -20 -26 -40t-8 -35t7 -23q6 -7 18 -9t34 -2h98q60 0 95.5 -11t57.5 -34q14 -14 23.5 -36.5t9.5 -53.5q0 -32 -10 -58.5t-30 -46.5q-26 -25 -70 -37.5t-112 -12.5q-107 0 -158 35.5
t-51 101.5q0 32 15 63t42 54q-13 11 -18.5 25t-5.5 31q0 26 13.5 56t38.5 53q-31 23 -47.5 59.5t-16.5 85.5q0 85 49.5 132t137.5 47q34 0 59 -7l63 128q12 -3 26 -9.5t22 -13.5zM248 196q68 0 99.5 33t31.5 96t-31.5 96t-99.5 33t-99.5 -33t-31.5 -96t31.5 -96t99.5 -33z
M184 -4q-15 0 -26 0.5t-20 1.5q-22 -20 -32 -43.5t-10 -46.5q0 -45 35 -70.5t122 -25.5q91 0 126.5 25t35.5 72q0 48 -27 67.5t-98 19.5h-106z" />
    <glyph glyph-name="h" unicode="h" horiz-adv-x="531" 
d="M132 0h-58v715h58v-258q38 22 80 34.5t84 12.5q39 0 71 -10.5t52 -30.5q21 -21 31 -50t10 -74v-339h-58v324q0 38 -6.5 60.5t-21.5 37.5q-29 29 -87 29q-36 0 -76.5 -10t-78.5 -29v-412z" />
    <glyph glyph-name="i" unicode="i" horiz-adv-x="210" 
d="M134 0h-58v490h58v-490zM143 628q0 -21 -9.5 -30t-26.5 -9h-4q-17 0 -26.5 9t-9.5 30v3q0 21 9.5 30t26.5 9h4q17 0 26.5 -9t9.5 -30v-3z" />
    <glyph glyph-name="j" unicode="j" horiz-adv-x="210" 
d="M76 490h58v-527q0 -53 -9 -90.5t-35 -64.5q-44 -45 -145 -45l-7 50q42 0 69 9t41 24q7 8 12.5 17.5t9 23t5 32t1.5 44.5v527zM143 628q0 -21 -9.5 -30t-26.5 -9h-4q-17 0 -26.5 9t-9.5 30v3q0 21 9.5 30t26.5 9h4q17 0 26.5 -9t9.5 -30v-3z" />
    <glyph glyph-name="k" unicode="k" horiz-adv-x="482" 
d="M132 223l245 267h67l-172 -185l190 -305h-66l-163 264l-101 -110v-154h-58v715h58v-492z" />
    <glyph glyph-name="l" unicode="l" horiz-adv-x="210" 
d="M134 0h-58v715h58v-715z" />
    <glyph glyph-name="m" unicode="m" horiz-adv-x="832" 
d="M120 490l4 -36q35 23 77 36.5t84 13.5t77.5 -13.5t55.5 -39.5q42 25 88.5 39t91.5 14q38 0 70.5 -10.5t52.5 -30.5q21 -21 30.5 -50t9.5 -74v-339h-58v324q0 38 -6 60.5t-21 37.5q-29 29 -88 29q-35 0 -74 -9.5t-76 -27.5q10 -29 10 -75v-339h-58v324q0 38 -6 60.5
t-21 37.5q-29 29 -86 29q-32 0 -69.5 -9.5t-75.5 -28.5v-413h-58v490h46z" />
    <glyph glyph-name="n" unicode="n" horiz-adv-x="531" 
d="M120 490l4 -37q40 24 83.5 37.5t88.5 13.5q39 0 71 -10.5t52 -30.5q21 -21 31 -50t10 -74v-339h-58v324q0 38 -6.5 60.5t-21.5 37.5q-29 29 -87 29q-36 0 -76.5 -10t-78.5 -29v-412h-58v490h46z" />
    <glyph glyph-name="o" unicode="o" horiz-adv-x="522" 
d="M110 245q0 -101 33.5 -155t117.5 -54t117.5 54t33.5 155t-33.5 155t-117.5 54t-117.5 -54t-33.5 -155zM50 245q0 125 50.5 192t160.5 67t160.5 -67t50.5 -192t-50.5 -192t-160.5 -67t-160.5 67t-50.5 192z" />
    <glyph glyph-name="p" unicode="p" horiz-adv-x="515" 
d="M74 -225v715h46l5 -37q29 20 70.5 35.5t81.5 15.5q92 0 140 -63t48 -194q0 -75 -15.5 -127t-44.5 -84q-23 -26 -56.5 -38t-74.5 -12q-38 0 -76.5 11.5t-65.5 29.5v-252h-58zM132 77q25 -17 61 -28.5t71 -11.5q79 0 111 53q30 51 30 158q0 112 -36 161q-33 44 -101 44
q-32 0 -68.5 -12t-67.5 -29v-335z" />
    <glyph glyph-name="q" unicode="q" horiz-adv-x="518" 
d="M251 -14q-201 0 -201 257q0 59 12.5 107.5t37.5 82.5t63 52.5t89 18.5q38 0 73 -12t67 -32l3 30h49v-709l-58 -11v255q-28 -17 -64 -28t-71 -11zM386 414q-27 17 -60 28t-66 11q-82 0 -116 -54t-34 -155q0 -106 33.5 -156.5t109.5 -50.5q32 0 67.5 9t65.5 24v344z" />
    <glyph glyph-name="r" unicode="r" horiz-adv-x="314" 
d="M132 0h-58v490h46l5 -42q34 28 72 42t73 14h10.5t13.5 -1v-54q-12 1 -20 1h-14q-38 0 -69.5 -11t-58.5 -30v-409z" />
    <glyph glyph-name="s" unicode="s" horiz-adv-x="416" 
d="M223 504q29 0 62.5 -4.5t58.5 -12.5l-3 -45q-65 14 -117 14q-60 0 -91.5 -20.5t-31.5 -65.5q0 -32 20.5 -50t51 -30.5t66 -22.5t66 -26.5t51 -43t20.5 -70.5q0 -69 -48 -105t-139 -36q-36 0 -71.5 5t-61.5 13l5 46q29 -8 62 -12t63 -4q67 0 101 23t34 67q0 34 -20.5 53
t-51 31.5t-66 22t-66 25.5t-51 41.5t-20.5 69.5q0 69 47.5 103t129.5 34z" />
    <glyph glyph-name="t" unicode="t" horiz-adv-x="344" 
d="M14 444v35l90 11v113q13 4 28.5 7t29.5 5v-125h130v-46h-130v-295q0 -35 3 -55.5t15 -34.5q10 -11 25.5 -16.5t39.5 -5.5q17 0 37.5 2.5t37.5 6.5l4 -47q-18 -6 -42 -9.5t-46 -3.5q-32 0 -57.5 7.5t-41.5 23.5q-17 17 -25 44.5t-8 69.5v313h-90z" />
    <glyph glyph-name="u" unicode="u" horiz-adv-x="529" 
d="M409 0l-4 37q-40 -24 -82.5 -37.5t-87.5 -13.5q-39 0 -71 10.5t-52 30.5q-21 21 -31 50t-10 74v339h58v-324q0 -38 6.5 -60.5t21.5 -37.5q29 -29 87 -29q36 0 75.5 10t77.5 29v412h58v-490h-46z" />
    <glyph glyph-name="v" unicode="v" horiz-adv-x="443" 
d="M80 490l144 -429l141 429h59l-170 -490h-62l-173 490h61z" />
    <glyph glyph-name="w" unicode="w" horiz-adv-x="683" 
d="M371 490l131 -432l108 432h55l-131 -490h-66l-127 415l-113 -415h-67l-143 490h60l118 -426l114 426h61z" />
    <glyph glyph-name="x" unicode="x" horiz-adv-x="430" 
d="M246 245l160 -245h-63l-132 202l-123 -202h-63l159 243l-160 247h63l132 -203l124 203h63z" />
    <glyph glyph-name="y" unicode="y" horiz-adv-x="529" 
d="M235 -14q-39 0 -71 10.5t-52 30.5q-21 21 -31 50t-10 74v339h58v-324q0 -38 6.5 -60.5t21.5 -37.5q29 -29 87 -29q36 0 75.5 10t77.5 29v412h58v-545q0 -50 -9 -82.5t-31 -55.5q-45 -46 -146 -46q-15 0 -36 1.5t-37 5.5l-7 49q14 -2 34.5 -3.5t35.5 -1.5q77 0 108 27
q16 14 23 37.5t7 70.5v85q-38 -22 -79 -34t-83 -12z" />
    <glyph glyph-name="z" unicode="z" horiz-adv-x="417" 
d="M42 0v32l267 412h-263v46h333v-33l-264 -412h268v-45h-341z" />
    <glyph glyph-name="ampersand" unicode="&#x26;" horiz-adv-x="665" 
d="M584 331q-2 -65 -19 -119t-46 -96l104 -115l-40 -34l-98 108q-43 -45 -98.5 -68t-118.5 -23q-45 0 -83.5 13.5t-66 38.5t-43 60t-15.5 78q0 72 40.5 122t109.5 87q-24 28 -41 50.5t-27.5 42.5t-15 39.5t-4.5 40.5q0 34 11.5 60t32 43.5t47.5 26.5t58 9q30 0 56 -9t45 -26
t30 -42t11 -56q0 -51 -29.5 -99t-98.5 -87l200 -222q21 35 34 79t16 98h49zM119 172q0 -63 42 -100.5t114 -37.5q54 0 99 19.5t80 57.5l-216 240q-57 -32 -88 -75.5t-31 -103.5zM363 560q0 40 -25 65.5t-67 25.5q-45 0 -71 -24t-26 -68q0 -19 5 -36t15 -34.5t25.5 -37.5
t37.5 -44q59 39 82.5 75t23.5 78z" />
    <glyph glyph-name="at" unicode="@" horiz-adv-x="748" 
d="M443 330h-69q-27 0 -43 -5t-25 -16q-13 -14 -13 -42q0 -29 15.5 -45t58.5 -16q21 0 41.5 4.5t34.5 12.5v107zM354 163q-56 0 -83.5 28.5t-27.5 73.5q0 20 5.5 38t17.5 31q14 17 38.5 25.5t72.5 8.5h66v29q0 29 -3 42.5t-11 21.5q-9 9 -26 13t-40 4q-19 0 -40.5 -1.5
t-44.5 -5.5l-2 39q21 5 48 8t47 3q66 0 96 -30q12 -12 19 -33.5t7 -59.5v-183q27 -7 50 -7q42 0 69 24q43 40 43 134q0 67 -19 120t-54.5 89.5t-87 56t-116.5 19.5q-70 0 -123 -22.5t-89 -64t-54.5 -98.5t-18.5 -126q0 -148 79 -228t237 -80q19 0 43.5 1.5t49.5 4.5
t48.5 6.5t41.5 7.5v-43q-18 -5 -42 -9t-50 -7t-52 -5t-49 -2q-88 0 -155 25t-112.5 70.5t-68.5 111t-23 146.5q0 82 23.5 148t67.5 112.5t106 72t140 25.5q75 0 135.5 -23t103 -65.5t65.5 -102.5t23 -135q0 -57 -15.5 -101.5t-44.5 -68.5q-41 -36 -104 -36q-26 0 -48.5 6
t-38.5 19q-21 -14 -48.5 -20.5t-50.5 -6.5z" />
    <glyph glyph-name="exclam" unicode="!" horiz-adv-x="266" 
d="M157 170h-48l-9 514h66zM131 -14q-39 0 -39 39v5q0 41 39 41h4q39 0 39 -41v-5q0 -39 -39 -39h-4z" />
    <glyph glyph-name="exclamdown" unicode="&#xa1;" horiz-adv-x="266" 
d="M109.01 310.011h47.9971l8.99902 -513.969h-65.9961zM135.008 493.999q38.998 0 38.998 -38.9971v-5q0 -40.998 -38.998 -40.998h-4q-38.9971 0 -38.9971 40.998v5q0 38.9971 38.9971 38.9971h4z" />
    <glyph glyph-name="question" unicode="?" horiz-adv-x="404" 
d="M40 676q26 9 62 15t71 6q93 0 141 -41q48 -40 48 -116q0 -24 -4.5 -44.5t-15 -42t-28 -45t-43.5 -52.5q-30 -34 -48 -57t-27.5 -42.5t-12 -39.5t-2.5 -47h-46q-2 8 -2.5 16.5t-0.5 14.5q0 22 3.5 40.5t12 36.5t21.5 36t31 40l11 13q27 31 44.5 54t28 42.5t14.5 37t4 37.5
q0 50 -26 76q-32 32 -106 32q-63 0 -122 -14zM157 -14q-39 0 -39 39v5q0 41 39 41h4q39 0 39 -41v-5q0 -39 -39 -39h-4z" />
    <glyph glyph-name="questiondown" unicode="&#xbf;" horiz-adv-x="404" 
d="M364.002 -195.959q-25.998 -8.99902 -61.9961 -14.999q-35.9971 -5.99902 -70.9951 -5.99902q-92.9941 0 -140.991 40.9971q-47.9971 39.9971 -47.9971 115.993q0 23.998 4.49902 44.4971q4.5 20.499 14.999 41.9971q10.5 21.499 27.999 44.998
q17.499 23.498 43.4971 52.4961q29.998 33.998 47.9971 56.9971q17.999 22.998 27.498 42.4971q9.5 19.499 11.999 39.498q2.5 19.998 2.5 46.9971h45.9971q2 -8 2.5 -16.499q0.5 -8.5 0.5 -14.499q0 -21.999 -3.5 -40.498q-3.49902 -18.499 -11.999 -36.498
q-8.49902 -17.999 -21.498 -35.9971q-13 -17.999 -30.999 -39.998l-10.999 -12.999q-26.998 -30.998 -44.4971 -53.9971q-17.499 -22.998 -27.998 -42.4971q-10.5 -19.499 -14.499 -36.998q-4 -17.499 -4 -37.4971q0 -49.9971 25.998 -75.9961
q31.998 -31.998 105.994 -31.998q62.9961 0 121.992 14zM247.01 493.999q38.9971 0 38.9971 -38.9971v-5q0 -40.998 -38.9971 -40.998h-4q-38.998 0 -38.998 40.998v5q0 38.9971 38.998 38.9971h4z" />
    <glyph glyph-name="asterisk" unicode="*" horiz-adv-x="424" 
d="M376 578l16 -47l-150 -52l102 -125l-40 -32l-92 132l-92 -132l-40 32l102 125l-150 52l16 47l146 -62l-10 168h56l-10 -168z" />
    <glyph glyph-name="period" unicode="." horiz-adv-x="222" 
d="M109 -14q-39 0 -39 39v5q0 41 39 41h4q39 0 39 -41v-5q0 -39 -39 -39h-4z" />
    <glyph glyph-name="comma" unicode="," horiz-adv-x="222" 
d="M102 -131v115q-21 5 -28.5 15t-7.5 26v5q0 23 11.5 32t27.5 9h4q21 -1 30.5 -13t9.5 -44q0 -15 -1.5 -33.5t-4 -38t-6.5 -38.5t-8 -35h-27z" />
    <glyph glyph-name="colon" unicode=":" horiz-adv-x="222" 
d="M109 -14q-39 0 -39 39v5q0 41 39 41h4q39 0 39 -41v-5q0 -39 -39 -39h-4zM109 320q-39 0 -39 39v5q0 41 39 41h4q39 0 39 -41v-5q0 -39 -39 -39h-4z" />
    <glyph glyph-name="semicolon" unicode=";" horiz-adv-x="222" 
d="M109 320q-39 0 -39 39v5q0 41 39 41h4q39 0 39 -41v-5q0 -39 -39 -39h-4zM106 -131v115q-21 5 -28.5 15t-7.5 26v5q0 23 11.5 32t27.5 9h4q21 -1 30.5 -13t9.5 -44q0 -15 -1.5 -33.5t-4 -38t-6.5 -38.5t-8 -35h-27z" />
    <glyph glyph-name="ellipsis" unicode="&#x2026;" horiz-adv-x="666" 
d="M109 -14q-39 0 -39 39v5q0 41 39 41h4q39 0 39 -41v-5q0 -39 -39 -39h-4zM331 -14q-39 0 -39 39v5q0 41 39 41h4q39 0 39 -41v-5q0 -39 -39 -39h-4zM553 -14q-39 0 -39 39v5q0 41 39 41h4q39 0 39 -41v-5q0 -39 -39 -39h-4z" />
    <glyph glyph-name="periodcentered" unicode="&#xb7;" horiz-adv-x="222" 
d="M109 320q-39 0 -39 39v5q0 41 39 41h4q39 0 39 -41v-5q0 -39 -39 -39h-4z" />
    <glyph glyph-name="bullet" unicode="&#x2022;" horiz-adv-x="359" 
d="M170 222q-51 0 -78.5 26t-27.5 88v12q0 62 27.5 88t78.5 26h19q51 0 78.5 -26t27.5 -88v-12q0 -62 -27.5 -88t-78.5 -26h-19z" />
    <glyph glyph-name="slash" unicode="/" horiz-adv-x="442" 
d="M103 -14h-56l292 711h56z" />
    <glyph glyph-name="parenleft" unicode="(" horiz-adv-x="316" 
d="M80 257q0 152 49.5 275.5t144.5 208.5l28 -24q-35 -41 -63.5 -88.5t-49.5 -104.5t-32.5 -123.5t-11.5 -143.5t11.5 -143.5t32.5 -123.5t49.5 -105t63.5 -88l-28 -24q-95 85 -144.5 208.5t-49.5 275.5z" />
    <glyph glyph-name="brokenbar" unicode="&#xa6;" horiz-adv-x="226" 
d="M88 357v386h50v-386h-50zM88 -253v387h50v-387h-50z" />
    <glyph glyph-name="parenright" unicode=")" horiz-adv-x="316" 
d="M236 257q0 -152 -49.5 -275.5t-144.5 -208.5l-28 24q34 40 63 88t50 105t32.5 123.5t11.5 143.5t-11.5 143.5t-32.5 123.5t-50 104.5t-63 88.5l28 24q95 -85 144.5 -208.5t49.5 -275.5z" />
    <glyph glyph-name="bracketleft" unicode="[" horiz-adv-x="329" 
d="M122 -207v934h175v-50h-115v-834h115v-50h-175z" />
    <glyph glyph-name="backslash" unicode="\" horiz-adv-x="442" 
d="M47 697h56l292 -711h-56z" />
    <glyph glyph-name="bracketright" unicode="]" horiz-adv-x="329" 
d="M32 -207v50h115v834h-115v50h175v-934h-175z" />
    <glyph glyph-name="braceleft" unicode="{" horiz-adv-x="344" 
d="M160 84q0 38 -5 64t-17.5 43t-32.5 27.5t-50 16.5v50q30 6 50 16.5t32.5 27.5t17.5 43t5 64v181q0 62 26.5 86t89.5 24h29v-50h-23q-21 0 -33.5 -3t-19 -10.5t-9 -20.5t-2.5 -33v-174q0 -40 -4 -68t-13.5 -47.5t-26 -33.5t-40.5 -27q24 -13 40.5 -27t26 -33.5t13.5 -47.5
t4 -68v-174q0 -20 2.5 -33t9 -20.5t19 -10.5t33.5 -3h23v-50h-29q-63 0 -89.5 24t-26.5 86v181z" />
    <glyph glyph-name="bar" unicode="|" horiz-adv-x="226" 
d="M88 -253v996h50v-996h-50z" />
    <glyph glyph-name="braceright" unicode="}" horiz-adv-x="344" 
d="M184 -97q0 -62 -26.5 -86t-89.5 -24h-29v50h23q21 0 33.5 3t19 10.5t9 20.5t2.5 33v174q0 40 4 68t13.5 47.5t26 33.5t40.5 27q-24 13 -40.5 27t-26 33.5t-13.5 47.5t-4 68v174q0 20 -2.5 33t-9 20.5t-19 10.5t-33.5 3h-23v50h29q63 0 89.5 -24t26.5 -86v-181
q0 -38 5 -64t17.5 -43t32.5 -27.5t50 -16.5v-50q-30 -6 -50 -16.5t-32.5 -27.5t-17.5 -43t-5 -64v-181z" />
    <glyph glyph-name="hyphen" unicode="-" horiz-adv-x="317" 
d="M66 234v51h185v-51h-185z" />
    <glyph glyph-name="uni00AD" unicode="&#xad;" horiz-adv-x="317" 
d="M66 234v51h185v-51h-185z" />
    <glyph glyph-name="endash" unicode="&#x2013;" horiz-adv-x="500" 
d="M0 234v51h500v-51h-500z" />
    <glyph glyph-name="emdash" unicode="&#x2014;" horiz-adv-x="1000" 
d="M0 234v51h1000v-51h-1000z" />
    <glyph glyph-name="underscore" unicode="_" horiz-adv-x="430" 
d="M32 -73v45h366v-45h-366z" />
    <glyph glyph-name="dagger" unicode="&#x2020;" horiz-adv-x="491" 
d="M266 426l195 9v-53l-195 9l6 -628h-53l6 628l-195 -9v53l195 -9l-6 258h53z" />
    <glyph glyph-name="daggerdbl" unicode="&#x2021;" horiz-adv-x="491" 
d="M461 65v-53l-195 9l6 -258h-53l6 258l-195 -9v53l195 -9v335l-195 -9v53l195 -9l-6 258h53l-6 -258l195 9v-53l-195 9v-335z" />
    <glyph glyph-name="section" unicode="&#xa7;" horiz-adv-x="536" 
d="M94 567q0 35 14 60t38 40.5t57.5 22.5t72.5 7q31 0 63.5 -5t60.5 -12l-8 -42q-25 6 -56 10t-59 4q-62 0 -97.5 -17t-35.5 -64q0 -34 18.5 -54.5t71.5 -33.5l76 -18q37 -9 63 -20.5t42.5 -27t23.5 -37t7 -50.5q0 -32 -13.5 -60t-41.5 -49q55 -35 55 -107
q0 -67 -49.5 -97.5t-133.5 -30.5q-39 0 -73 4.5t-69 13.5l5 43q34 -8 68 -12t65 -4q62 0 99.5 19t37.5 64q0 32 -20 52.5t-72 32.5l-78 18q-38 9 -64 21t-42 28.5t-23 38t-7 48.5q0 31 13.5 60.5t42.5 50.5q-28 19 -40 44.5t-12 58.5zM396 327q0 19 -5 32.5t-16.5 24
t-30.5 18t-48 14.5l-75 18q-10 2 -18.5 4.5t-16.5 5.5q-23 -15 -34.5 -39.5t-11.5 -48.5q0 -35 21.5 -55.5t77.5 -33.5l79 -18l31 -9q23 17 35 39.5t12 47.5z" />
    <glyph glyph-name="paragraph" unicode="&#xb6;" horiz-adv-x="570" 
d="M245 343q-93 0 -146.5 44t-53.5 126q0 85 46.5 128t126.5 43h307v-52h-70v-835h-59v835h-92v-835h-59v546z" />
    <glyph glyph-name="registered" unicode="&#xae;" horiz-adv-x="788" 
d="M102 342q0 -72 20 -129.5t57.5 -97.5t91.5 -61.5t123 -21.5t123 21.5t91.5 61.5t57.5 97.5t20 129.5t-20 129.5t-57.5 97.5t-91.5 61t-123 21t-123 -21t-91.5 -61t-57.5 -97.5t-20 -129.5zM50 342q0 79 22.5 144t66 112t108 73t147.5 26t147.5 -26t108 -73t66 -112
t22.5 -144t-22.5 -144.5t-66 -112.5t-108 -73t-147.5 -26t-147.5 26t-108 73t-66 112.5t-22.5 144.5zM288 175v343h100q74 0 102 -28q25 -24 25 -75q0 -36 -16.5 -61t-47.5 -36l71 -143h-51l-64 135h-72v-135h-47zM391 351q40 0 57 14.5t17 52.5q0 34 -16.5 46.5t-58.5 12.5
h-55v-126h56z" />
    <glyph glyph-name="copyright" unicode="&#xa9;" horiz-adv-x="788" 
d="M102 342q0 -72 20 -129.5t57.5 -97.5t91.5 -61.5t123 -21.5t123 21.5t91.5 61.5t57.5 97.5t20 129.5t-20 129.5t-57.5 97.5t-91.5 61t-123 21t-123 -21t-91.5 -61t-57.5 -97.5t-20 -129.5zM50 342q0 79 22.5 144t66 112t108 73t147.5 26t147.5 -26t108 -73t66 -112
t22.5 -144t-22.5 -144.5t-66 -112.5t-108 -73t-147.5 -26t-147.5 26t-108 73t-66 112.5t-22.5 144.5zM413 209q16 0 32.5 1.5t35.5 6.5l1 -40q-17 -5 -35.5 -7.5t-34.5 -2.5q-69 0 -108.5 42t-39.5 135q0 87 37.5 132.5t104.5 45.5q20 0 41 -3t38 -10l-5 -39q-18 6 -35.5 8
t-31.5 2q-54 0 -76.5 -33.5t-22.5 -102.5q0 -70 25 -102.5t74 -32.5z" />
    <glyph glyph-name="trademark" unicode="&#x2122;" horiz-adv-x="647" 
d="M261 684v-41h-99v-278h-47v278h-99v41h245zM460 476l105 208h46v-319h-46v227l-88 -174h-35l-85 176v-229h-44v319h47z" />
    <glyph glyph-name="quotedblleft" unicode="&#x201c;" horiz-adv-x="341" 
d="M245 697v-115q21 -5 28.5 -15t7.5 -26v-5q0 -23 -11.5 -32t-27.5 -9h-4q-21 1 -30.5 13t-9.5 44q0 15 1.5 33.5t4 38t6 38.5t8.5 35h27zM117 697v-115q21 -5 28.5 -15t7.5 -26v-5q0 -23 -11.5 -32t-27.5 -9h-4q-21 1 -30.5 13t-9.5 44q0 15 1.5 33.5t4 38t6 38.5t8.5 35
h27z" />
    <glyph glyph-name="quotedblright" unicode="&#x201d;" horiz-adv-x="341" 
d="M96 495v115q-21 5 -28.5 15t-7.5 26v5q0 23 11.5 32t27.5 9h4q21 -1 30.5 -13t9.5 -44q0 -15 -1.5 -33.5t-4 -38t-6.5 -38.5t-8 -35h-27zM224 495v115q-21 5 -28.5 15t-7.5 26v5q0 23 11.5 32t27.5 9h4q21 -1 30.5 -13t9.5 -44q0 -15 -1.5 -33.5t-4 -38t-6.5 -38.5
t-8 -35h-27z" />
    <glyph glyph-name="quoteleft" unicode="&#x2018;" horiz-adv-x="213" 
d="M117 697v-115q21 -5 28.5 -15t7.5 -26v-5q0 -23 -11.5 -32t-27.5 -9h-4q-21 1 -30.5 13t-9.5 44q0 15 1.5 33.5t4 38t6 38.5t8.5 35h27z" />
    <glyph glyph-name="quoteright" unicode="&#x2019;" horiz-adv-x="213" 
d="M96 495v115q-21 5 -28.5 15t-7.5 26v5q0 23 11.5 32t27.5 9h4q21 -1 30.5 -13t9.5 -44q0 -15 -1.5 -33.5t-4 -38t-6.5 -38.5t-8 -35h-27z" />
    <glyph glyph-name="guillemotleft" unicode="&#xab;" horiz-adv-x="507" 
d="M84 262q0 11 5 22t22 31l125 145l29 -21l-119 -177l119 -177l-29 -21l-125 145q-17 20 -22 31t-5 22zM256 262q0 11 5 22t22 31l125 145l29 -21l-119 -177l119 -177l-29 -21l-125 145q-17 20 -22 31t-5 22z" />
    <glyph glyph-name="guillemotright" unicode="&#xbb;" horiz-adv-x="507" 
d="M423 262q0 -11 -5 -22t-22 -31l-125 -145l-29 21l119 177l-119 177l29 21l125 -145q17 -20 22 -31t5 -22zM251 262q0 -11 -5 -22t-22 -31l-125 -145l-29 21l119 177l-119 177l29 21l125 -145q17 -20 22 -31t5 -22z" />
    <glyph glyph-name="guilsinglleft" unicode="&#x2039;" horiz-adv-x="335" 
d="M84 262q0 11 5 22t22 31l125 145l29 -21l-119 -177l119 -177l-29 -21l-125 145q-17 20 -22 31t-5 22z" />
    <glyph glyph-name="guilsinglright" unicode="&#x203a;" horiz-adv-x="335" 
d="M251 262q0 -11 -5 -22t-22 -31l-125 -145l-29 21l119 177l-119 177l29 21l125 -145q17 -20 22 -31t5 -22z" />
    <glyph glyph-name="quotesinglbase" unicode="&#x201a;" horiz-adv-x="213" 
d="M96 -131v115q-21 5 -28.5 15t-7.5 26v5q0 23 11.5 32t27.5 9h4q21 -1 30.5 -13t9.5 -44q0 -15 -1.5 -33.5t-4 -38t-6.5 -38.5t-8 -35h-27z" />
    <glyph glyph-name="quotedblbase" unicode="&#x201e;" horiz-adv-x="341" 
d="M96 -131v115q-21 5 -28.5 15t-7.5 26v5q0 23 11.5 32t27.5 9h4q21 -1 30.5 -13t9.5 -44q0 -15 -1.5 -33.5t-4 -38t-6.5 -38.5t-8 -35h-27zM224 -131v115q-21 5 -28.5 15t-7.5 26v5q0 23 11.5 32t27.5 9h4q21 -1 30.5 -13t9.5 -44q0 -15 -1.5 -33.5t-4 -38t-6.5 -38.5
t-8 -35h-27z" />
    <glyph glyph-name="ordfeminine" unicode="&#xaa;" 
d="M269 510h-76q-46 0 -63.5 -14.5t-17.5 -43.5q0 -26 16.5 -42t55.5 -16q20 0 44 5.5t41 14.5v96zM275 378q-20 -12 -47.5 -20.5t-53.5 -8.5q-54 0 -83 26.5t-29 76.5q0 41 23 67q14 16 39 24t67 8h78v30q0 40 -18.5 56t-57.5 16q-44 0 -89 -9l-5 41q19 5 46.5 8.5
t49.5 3.5q66 0 94.5 -27.5t28.5 -92.5v-221h-39z" />
    <glyph glyph-name="ordmasculine" unicode="&#xba;" horiz-adv-x="420" 
d="M360 523q0 -83 -39 -128.5t-111 -45.5t-111 45.5t-39 128.5t39 128.5t111 45.5t111 -45.5t39 -128.5zM307 523q0 127 -97 127t-97 -127t97 -127t97 127z" />
    <glyph glyph-name="zero" unicode="0" horiz-adv-x="532" 
d="M490 341q0 -84 -12 -150t-39 -111.5t-69.5 -69.5t-103.5 -24t-103.5 24t-69.5 69.5t-39 111.5t-12 150t12 150t39 112t69.5 70t103.5 24t103.5 -24t69.5 -70t39 -112t12 -150zM429 341q0 72 -7.5 128t-26.5 94.5t-50 58.5t-79 20t-79 -20t-50 -58.5t-26.5 -94.5
t-7.5 -128t7.5 -128t26.5 -94t50 -58t79 -20t79 20t50 58t26.5 94t7.5 128z" />
    <glyph glyph-name="one" unicode="1" horiz-adv-x="532" 
d="M406 47v-47h-276v47h119v594h-114v41q31 4 64.5 6t53.5 2q29 0 40.5 -8.5t11.5 -31.5v-603h101z" />
    <glyph glyph-name="two" unicode="2" horiz-adv-x="532" 
d="M458 51v-51h-388q-2 4 -2.5 9.5t-0.5 9.5q0 8 1.5 15t5.5 15.5t11.5 19.5t20.5 26l167 205q30 36 51 66t34.5 56.5t20 50.5t6.5 48q0 56 -30 86q-19 19 -50 28.5t-81 9.5q-31 0 -67 -3.5t-74 -10.5v47q26 8 67.5 13.5t83.5 5.5q51 0 92.5 -11t70.5 -38q28 -26 38.5 -59
t10.5 -64t-6 -57.5t-21 -55t-40 -62.5t-62 -79l-184 -220h325z" />
    <glyph glyph-name="three" unicode="3" horiz-adv-x="532" 
d="M73 51q29 -6 66.5 -9.5t69.5 -3.5q46 0 83.5 9.5t60.5 31.5q39 36 39 108q0 61 -36 97q-45 43 -149 43h-7v44h8q91 0 130 40q37 39 37 101q0 30 -7 54.5t-24 41.5q-18 19 -48.5 28.5t-78.5 9.5q-29 0 -64.5 -3.5t-69.5 -10.5v47q32 9 72.5 13.5t75.5 4.5q49 0 88.5 -11.5
t67.5 -37.5q23 -22 35.5 -53t12.5 -74q0 -65 -28 -104.5t-77 -62.5q54 -15 88.5 -56t34.5 -111q0 -49 -15 -85.5t-42 -61.5q-60 -54 -179 -54q-17 0 -36 1t-38.5 3.5t-37.5 5.5t-32 7v48z" />
    <glyph glyph-name="four" unicode="4" horiz-adv-x="532" 
d="M46 172q-1 5 -1.5 11t-0.5 11q0 14 3.5 27.5t12.5 39.5l144 423h55l-157 -463h261v177h56v-177h83v-49h-83v-172h-56v172h-317z" />
    <glyph glyph-name="five" unicode="5" horiz-adv-x="532" 
d="M155 398h63q69 0 113.5 -13.5t74.5 -42.5q53 -51 53 -149q0 -104 -63.5 -155.5t-172.5 -51.5q-32 0 -69.5 4t-61.5 11v49q27 -6 61.5 -9t63.5 -3q94 0 137.5 39t43.5 114q0 74 -35 112q-23 24 -58.5 34.5t-98.5 10.5h-99q-2 6 -3 19.5t0 29.5l11 287h302v-51h-253z" />
    <glyph glyph-name="six" unicode="6" horiz-adv-x="532" 
d="M424 639q-21 3 -49 5t-49 2q-51 0 -81 -10t-51 -31q-34 -34 -48 -91.5t-17 -137.5q39 16 82.5 25t78.5 9q93 0 142.5 -49t49.5 -149q0 -103 -51.5 -164.5t-150.5 -61.5q-60 0 -100.5 23t-65 65t-35.5 101t-11 131q0 119 19.5 201t61.5 129q31 34 74.5 47.5t96.5 13.5
q23 0 53.5 -3.5t50.5 -8.5v-46zM128 285q0 -53 7.5 -98.5t25 -79t46.5 -52.5t73 -19q72 0 109 46t37 125q0 85 -38.5 119.5t-108.5 34.5q-34 0 -75.5 -7.5t-75.5 -19.5v-49z" />
    <glyph glyph-name="seven" unicode="7" horiz-adv-x="532" 
d="M462 684q2 -8 2 -17q0 -11 -2.5 -21t-5.5 -20l-208 -626h-66l221 633h-328v51h387v0z" />
    <glyph glyph-name="eight" unicode="8" horiz-adv-x="532" 
d="M481 173q0 -43 -16.5 -77.5t-45 -59t-68.5 -37.5t-86 -13q-50 0 -89.5 13.5t-67 37.5t-42.5 57t-15 72q0 68 40.5 119.5t106.5 81.5q-24 13 -44.5 28.5t-36 35t-24.5 44t-9 55.5q0 37 13.5 67.5t37.5 52.5t57.5 34.5t74.5 12.5t74.5 -13t57.5 -35t37 -51t13 -60
q0 -63 -33.5 -104.5t-96.5 -70.5q31 -15 60.5 -32.5t52 -40t36 -51t13.5 -66.5zM424 165q0 36 -15.5 62.5t-40.5 46.5t-56.5 35.5t-64.5 31.5q-66 -26 -101.5 -69.5t-35.5 -100.5q0 -59 42 -96.5t114 -37.5q70 0 114 33.5t44 94.5zM396 534q0 50 -35 81.5t-92 31.5
q-60 0 -95.5 -31.5t-35.5 -82.5q0 -27 11 -48.5t29 -38.5t42 -31.5t51 -27.5q63 27 94 63t31 84z" />
    <glyph glyph-name="nine" unicode="9" horiz-adv-x="532" 
d="M108 44q21 -3 49 -5t49 -2q51 0 81 10t51 31q34 34 48 91.5t17 137.5q-39 -16 -82.5 -25t-78.5 -9q-93 0 -142.5 49t-49.5 149q0 103 51.5 164.5t150.5 61.5q60 0 100.5 -23t65 -65t35.5 -101t11 -131q0 -119 -19.5 -201t-61.5 -129q-31 -34 -74.5 -47.5t-96.5 -13.5
q-23 0 -53.5 3.5t-50.5 8.5v46zM404 398q0 53 -7.5 98.5t-25 79t-47 52.5t-72.5 19q-72 0 -109 -46t-37 -125q0 -43 9.5 -72.5t28.5 -47.5t46.5 -26t62.5 -8q34 0 75.5 7.5t75.5 19.5v49z" />
    <glyph glyph-name="dollar" unicode="$" horiz-adv-x="532" 
d="M434 627q-32 8 -71 13t-71 6v-274q33 -15 65.5 -31.5t58 -39.5t41 -54t15.5 -75q0 -85 -47.5 -129.5t-132.5 -53.5v-122h-44v119q-50 0 -99 7t-86 18v51q37 -11 87 -18t98 -7v292q-34 14 -67 30t-59.5 37.5t-42.5 52t-16 73.5q0 39 12 68.5t32 50.5q25 26 61 39t80 16
v111h44v-110q35 -1 73.5 -6.5t68.5 -15.5v-48zM415 170q0 28 -10 49t-26.5 37.5t-39 29.5t-47.5 24v-270q54 5 87.5 37t35.5 93zM120 528q0 -27 10 -47.5t27.5 -36.5t41 -29t49.5 -24v253q-60 -5 -94 -33t-34 -83z" />
    <glyph glyph-name="cent" unicode="&#xa2;" horiz-adv-x="532" 
d="M432 -2q-20 -5 -48 -8t-55 -4v-120h-44v122q-99 9 -149 70t-50 182q0 124 50.5 189t148.5 73v112h44v-110q52 -2 100 -17v-46q-48 12 -100 14v-421q13 0 27.5 1t28.5 2.5t26 3t21 3.5v-46zM145 242q0 -94 32 -144t108 -61v416q-77 -10 -108.5 -62t-31.5 -149z" />
    <glyph glyph-name="Euro" unicode="&#x20ac;" horiz-adv-x="532" 
d="M101 292q-1 11 -1 22.5v23.5v26h-70v32l72 9q12 152 85 226q64 66 182 66q32 0 66 -5.5t65 -15.5v-46q-30 8 -64 13t-62 5q-47 0 -80.5 -12t-58.5 -35q-62 -59 -74 -193h219v-44h-221v-24v-23t1 -22h220v-44h-217q12 -114 63.5 -165.5t153.5 -51.5q27 0 62 4t68 11v-45
q-30 -8 -67 -13t-70 -5q-123 0 -188.5 64t-80.5 201h-74v32z" />
    <glyph glyph-name="florin" unicode="&#x192;" horiz-adv-x="532" 
d="M291 346h131v-45h-135l-28 -375q-4 -49 -14 -80.5t-30 -52.5q-40 -43 -123 -43q-17 0 -34.5 2t-30.5 4v47q17 -2 32 -3t29 -1q60 0 84 27q13 14 20.5 37.5t10.5 66.5l28 371h-116v32l119 11l16 208q4 49 14 80.5t30 52.5q40 43 123 43q17 0 34.5 -2t30.5 -4v-47
q-17 2 -32 3t-29 1q-60 0 -84 -27q-13 -14 -20.5 -37.5t-10.5 -66.5z" />
    <glyph glyph-name="sterling" unicode="&#xa3;" horiz-adv-x="532" 
d="M149 373q-8 32 -14.5 64.5t-6.5 66.5q0 95 54 144q27 24 65 36.5t92 12.5q29 0 66 -4.5t69 -12.5v-47q-29 5 -64 8.5t-64 3.5q-87 0 -125 -38q-36 -36 -36 -104q0 -30 6 -61.5t14 -63.5h179v-44h-167q7 -28 11.5 -55t4.5 -53q0 -54 -26 -94t-69 -81h352v-51h-404
q-2 6 -3 13t-1 14q0 16 5.5 27t22.5 29q37 38 51.5 71.5t14.5 71.5q0 26 -5 53t-12 55h-85v30z" />
    <glyph glyph-name="yen" unicode="&#xa5;" horiz-adv-x="532" 
d="M427 198v-44h-138v-154h-56v154h-138v44h138v54h-138v44h131l-188 388h63l164 -351l171 351h59l-197 -388h129v-44h-138v-54h138z" />
    <glyph glyph-name="numbersign" unicode="#" horiz-adv-x="532" 
d="M365 217l-42 -217h-49l42 217h-148l-42 -217h-49l42 217h-73v45h81l31 159h-112v45h120l43 218h49l-43 -218h148l43 218h49l-43 -218h74v-45h-82l-31 -159h113v-45h-121zM176 262h148l31 159h-148z" />
    <glyph glyph-name="percent" unicode="%" horiz-adv-x="892" 
d="M356 495q0 -95 -35.5 -148.5t-112.5 -53.5t-112.5 53.5t-35.5 148.5t35.5 148.5t112.5 53.5t112.5 -53.5t35.5 -148.5zM304 495q0 81 -21.5 118t-74.5 37t-74.5 -37t-21.5 -118t21.5 -118t74.5 -37t74.5 37t21.5 118zM832 188q0 -95 -35.5 -148.5t-112.5 -53.5
t-112.5 53.5t-35.5 148.5t35.5 148.5t112.5 53.5t112.5 -53.5t35.5 -148.5zM780 188q0 81 -21.5 118t-74.5 37t-74.5 -37t-21.5 -118t21.5 -118t74.5 -37t74.5 37t21.5 118zM301 -14h-54l344 711h54z" />
    <glyph glyph-name="perthousand" unicode="&#x2030;" horiz-adv-x="1242" 
d="M356 495q0 -95 -35.5 -148.5t-112.5 -53.5t-112.5 53.5t-35.5 148.5t35.5 148.5t112.5 53.5t112.5 -53.5t35.5 -148.5zM304 495q0 81 -21.5 118t-74.5 37t-74.5 -37t-21.5 -118t21.5 -118t74.5 -37t74.5 37t21.5 118zM832 188q0 -95 -35.5 -148.5t-112.5 -53.5
t-112.5 53.5t-35.5 148.5t35.5 148.5t112.5 53.5t112.5 -53.5t35.5 -148.5zM780 188q0 81 -21.5 118t-74.5 37t-74.5 -37t-21.5 -118t21.5 -118t74.5 -37t74.5 37t21.5 118zM1182 188q0 -95 -35.5 -148.5t-112.5 -53.5t-112.5 53.5t-35.5 148.5t35.5 148.5t112.5 53.5
t112.5 -53.5t35.5 -148.5zM1130 188q0 81 -21.5 118t-74.5 37t-74.5 -37t-21.5 -118t21.5 -118t74.5 -37t74.5 37t21.5 118zM301 -14h-54l344 711h54z" />
    <glyph glyph-name="plus" unicode="+" horiz-adv-x="513" 
d="M281 357h132v-49h-132v-132h-49v132h-132v49h132v132h49v-132z" />
    <glyph glyph-name="minus" unicode="&#x2212;" horiz-adv-x="513" 
d="M100 308v49h313v-49h-313z" />
    <glyph glyph-name="multiply" unicode="&#xd7;" horiz-adv-x="513" 
d="M256 367l94 93l34 -34l-93 -94l93 -93l-34 -34l-94 93l-93 -93l-34 34l93 93l-93 94l34 34z" />
    <glyph glyph-name="less" unicode="&#x3c;" horiz-adv-x="513" 
d="M103 357l307 157v-56l-260 -129l260 -128v-56l-307 157v55z" />
    <glyph glyph-name="divide" unicode="&#xf7;" horiz-adv-x="513" 
d="M254 139q-38 0 -38 40v3q0 40 38 40h4q38 0 38 -40v-3q0 -40 -38 -40h-4zM254 438q-38 0 -38 40v3q0 40 38 40h4q38 0 38 -40v-3q0 -40 -38 -40h-4zM100 308v49h313v-49h-313z" />
    <glyph glyph-name="equal" unicode="=" horiz-adv-x="513" 
d="M100 391v51h313v-51h-313zM100 223v51h313v-51h-313z" />
    <glyph glyph-name="logicalnot" unicode="&#xac;" horiz-adv-x="513" 
d="M362 391h-262v51h313v-219h-51v168z" />
    <glyph glyph-name="greater" unicode="&#x3e;" horiz-adv-x="513" 
d="M410 302l-307 -157v56l260 128l-260 129v56l307 -157v-55z" />
    <glyph glyph-name="notequal" unicode="&#x2260;" horiz-adv-x="513" 
d="M244 223l-50 -146h-50l50 146h-94v51h111l40 117h-151v51h169l50 147h52l-51 -147h93v-51h-111l-40 -117h151v-51h-169z" />
    <glyph glyph-name="approxequal" unicode="&#x2248;" horiz-adv-x="513" 
d="M104 208q3 39 19 57t45 18q22 0 45 -6t45.5 -12.5t44 -12.5t39.5 -6q14 0 21.5 6.5t11.5 24.5l35 -5q-3 -39 -19 -57t-45 -18q-23 0 -46.5 6t-46 12.5t-43.5 12.5t-38 6q-14 0 -21.5 -6.5t-11.5 -24.5zM104 389q3 39 19 57t45 18q22 0 45 -6t45.5 -12.5t44 -12.5t39.5 -6
q14 0 21.5 6.5t11.5 24.5l35 -5q-3 -39 -19 -57t-45 -18q-23 0 -46.5 6t-46 12.5t-43.5 12.5t-38 6q-14 0 -21.5 -6.5t-11.5 -24.5z" />
    <glyph glyph-name="plusminus" unicode="&#xb1;" horiz-adv-x="513" 
d="M281 357h132v-49h-132v-132h-49v132h-132v49h132v132h49v-132zM100 0v49h313v-49h-313z" />
    <glyph glyph-name="lessequal" unicode="&#x2264;" horiz-adv-x="513" 
d="M103 357l307 157v-56l-260 -129l260 -128v-56l-307 157v55zM100 0v49h313v-49h-313z" />
    <glyph glyph-name="greaterequal" unicode="&#x2265;" horiz-adv-x="513" 
d="M410 302l-307 -157v56l260 128l-260 129v56l307 -157v-55zM100 0v49h313v-49h-313z" />
    <glyph glyph-name="asciicircum" unicode="^" horiz-adv-x="513" 
d="M281 684l160 -267h-55l-129 223l-129 -223h-55l160 267h48z" />
    <glyph glyph-name="asciitilde" unicode="~" horiz-adv-x="513" 
d="M433 399q-2 -37 -20 -57t-58 -20q-24 0 -48.5 5.5t-48.5 12.5t-48 12.5t-48 5.5q-20 0 -30 -10.5t-13 -27.5l-38 10q2 37 20 57t58 20q24 0 48.5 -5.5t48.5 -12.5t48 -12.5t48 -5.5q20 0 30 10.5t13 27.5z" />
    <glyph glyph-name="lozenge" unicode="&#x25ca;" horiz-adv-x="558" 
d="M491 399q11 -19 17 -32t6 -25t-6 -25t-17 -32l-179 -285h-66l-179 285q-11 19 -17 32t-6 25t6 25t17 32l179 285h66zM279 642l-185 -300l185 -300l185 300z" />
    <glyph glyph-name="degree" unicode="&#xb0;" horiz-adv-x="446" 
d="M382 524q0 -82 -44.5 -127.5t-114.5 -45.5t-114.5 45.5t-44.5 127.5t44.5 127.5t114.5 45.5t114.5 -45.5t44.5 -127.5zM327 524q0 59 -26 92t-78 33t-78 -33t-26 -92t26 -92t78 -33t78 33t26 92z" />
    <glyph glyph-name="quotesingle" unicode="'" horiz-adv-x="217" 
d="M87 497l-7 187h57l-7 -187h-43z" />
    <glyph glyph-name="quotedbl" unicode="&#x22;" horiz-adv-x="346" 
d="M87 497l-7 187h57l-7 -187h-43zM216 497l-7 187h57l-7 -187h-43z" />
    <glyph glyph-name="radical" unicode="&#x221a;" horiz-adv-x="641" 
d="M74 443v47h110l156 -420l222 661h55l-248 -731h-60l-168 443h-67z" />
    <glyph glyph-name="currency" unicode="&#xa4;" horiz-adv-x="532" 
d="M102 350q0 32 8.5 59t22.5 49l-78 79l31 31l77 -77q42 34 103 34q60 0 103 -34l77 77l31 -31l-79 -79q15 -22 23.5 -49t8.5 -59t-8.5 -59.5t-23.5 -49.5l79 -78l-31 -31l-77 77q-43 -34 -103 -34q-61 0 -103 34l-77 -77l-31 31l78 78q-14 22 -22.5 49.5t-8.5 59.5z
M154 350q0 -54 28.5 -91.5t83.5 -37.5t83.5 37.5t28.5 91.5t-28.5 91.5t-83.5 37.5t-83.5 -37.5t-28.5 -91.5z" />
    <glyph glyph-name="infinity" unicode="&#x221e;" horiz-adv-x="685" 
d="M489 170q-26 0 -46.5 8.5t-37 22.5t-29.5 33t-25 40q-28 -43 -65.5 -72.5t-87.5 -29.5q-38 0 -65 13.5t-44 37t-25 54t-8 64.5q0 33 8 63t25 53t43.5 36.5t63.5 13.5q27 0 48 -8t37.5 -22t30 -32t24.5 -39q27 42 64.5 70.5t86.5 28.5q38 0 65 -14t44 -37t25 -53.5
t8 -64.5q0 -33 -8 -63t-25 -53t-43.5 -36.5t-63.5 -13.5zM195 458q-41 0 -64.5 -30.5t-23.5 -86.5q0 -57 24 -89.5t69 -32.5q42 0 71 26t58 73q-13 26 -26 51.5t-28.5 45t-35 31.5t-44.5 12zM490 219q41 0 64.5 30.5t23.5 86.5q0 57 -24 89.5t-69 32.5q-42 0 -70.5 -25
t-56.5 -70q13 -27 25.5 -53t27.5 -46t34 -32.5t45 -12.5z" />
    <glyph glyph-name="mu" unicode="&#xb5;" horiz-adv-x="532" 
d="M74 490h58v-324q0 -38 6.5 -60.5t21.5 -37.5q29 -29 87 -29q36 0 75.5 10t77.5 29v412h58v-490h-46l-4 37q-40 -24 -82.5 -37.5t-87.5 -13.5q-32 0 -59 6.5t-47 20.5v-238h-58v715z" />
    <glyph glyph-name="mu" unicode="&#x3bc;" horiz-adv-x="532" 
d="M74 490h58v-324q0 -38 6.5 -60.5t21.5 -37.5q29 -29 87 -29q36 0 75.5 10t77.5 29v412h58v-490h-46l-4 37q-40 -24 -82.5 -37.5t-87.5 -13.5q-32 0 -59 6.5t-47 20.5v-238h-58v715z" />
    <glyph glyph-name="partialdiff" unicode="&#x2202;" horiz-adv-x="532" 
d="M408 334q-34 12 -75.5 19.5t-75.5 7.5q-71 0 -108.5 -34.5t-37.5 -119.5q0 -79 36.5 -125t108.5 -46q43 0 72.5 19t47 52.5t25 79t7.5 98.5v49zM114 686q20 5 50 8t56 3q53 0 96 -14t73 -47q42 -47 60.5 -129t18.5 -201q0 -72 -11 -131t-35.5 -101t-65 -65t-100.5 -23
q-99 0 -150.5 61.5t-51.5 164.5q0 100 49.5 149t142.5 49q35 0 78.5 -9t82.5 -25q-3 80 -15.5 138t-47.5 91q-21 20 -51 30.5t-81 10.5q-20 0 -48.5 -2t-49.5 -5v47z" />
    <glyph glyph-name="summation" unicode="&#x2211;" horiz-adv-x="599" 
d="M66 -225v42l302 418l-299 406v43h465v-52h-392l292 -397l-301 -408h406v-52h-473z" />
    <glyph glyph-name="product" unicode="&#x220f;" horiz-adv-x="717" 
d="M667 632h-94v-857h-60v857h-309v-857h-60v857h-94v52h617v-52z" />
    <glyph glyph-name="pi" unicode="&#x3c0;" horiz-adv-x="605" 
d="M432 441h-259v-441h-58v441h-85v45h545v-45h-85v-441h-58v441z" />
    <glyph glyph-name="integral" unicode="&#x222b;" horiz-adv-x="513" 
d="M229 580q0 49 8.5 78t27.5 48q18 18 43.5 27.5t66.5 9.5q15 0 32 -1t36 -4v-46q-6 2 -22 3t-30 1q-32 0 -51 -5t-30 -16q-14 -13 -20 -34t-6 -67v-650q0 -49 -8.5 -78t-27.5 -48q-18 -18 -43.5 -27.5t-66.5 -9.5q-15 0 -32 1t-36 4v46q6 -2 22 -3t30 -1q32 0 51 5t30 16
q14 13 20 34t6 67v650z" />
    <glyph glyph-name="Omega" unicode="&#x3a9;" horiz-adv-x="658" 
d="M329 697q62 0 111 -22.5t83.5 -64t52.5 -100t18 -131.5q0 -108 -43 -191.5t-112 -135.5h136v-52h-209v26q0 12 3 20t17 19q72 60 109 139t37 172q0 61 -12.5 109.5t-38 83t-63.5 53t-89 18.5t-89 -18.5t-63.5 -53t-38 -83t-12.5 -109.5q0 -93 37 -172t109 -139
q14 -11 17 -19t3 -20v-26h-209v52h136q-69 52 -112 135.5t-43 191.5q0 73 18 131.5t52.5 100t83.5 64t111 22.5z" />
    <glyph glyph-name="Omega" unicode="&#x2126;" horiz-adv-x="658" 
d="M329 697q62 0 111 -22.5t83.5 -64t52.5 -100t18 -131.5q0 -108 -43 -191.5t-112 -135.5h136v-52h-209v26q0 12 3 20t17 19q72 60 109 139t37 172q0 61 -12.5 109.5t-38 83t-63.5 53t-89 18.5t-89 -18.5t-63.5 -53t-38 -83t-12.5 -109.5q0 -93 37 -172t109 -139
q14 -11 17 -19t3 -20v-26h-209v52h136q-69 52 -112 135.5t-43 191.5q0 73 18 131.5t52.5 100t83.5 64t111 22.5z" />
    <glyph glyph-name="Delta" unicode="&#x394;" horiz-adv-x="603" 
d="M556 64q6 -17 7.5 -27t1.5 -21v-16h-527v16q0 11 1.5 21t7.5 27l215 620h74zM297 627l-194 -576h394z" />
    <glyph glyph-name="Delta" unicode="&#x2206;" horiz-adv-x="603" 
d="M556 64q6 -17 7.5 -27t1.5 -21v-16h-527v16q0 11 1.5 21t7.5 27l215 620h74zM297 627l-194 -576h394z" />
    <glyph glyph-name="litre" unicode="&#x2113;" horiz-adv-x="210" 
d="M134 0h-58v715h58v-715z" />
    <glyph glyph-name="estimated" unicode="&#x212e;" horiz-adv-x="874" 
d="M192 333q-7 0 -7 -6v-194q0 -7 3 -12t8 -11q45 -47 108 -74.5t135 -27.5q78 0 143.5 31t110.5 85h59q-56 -63 -137 -100.5t-177 -37.5q-82 0 -154.5 28t-126.5 76t-85.5 112.5t-31.5 138.5t31.5 139t85.5 113t126.5 76t154.5 28q81 0 153 -28t126 -76t85.5 -113
t31.5 -139v-8h-642zM689 554q0 12 -12 24q-46 46 -107.5 72t-130.5 26q-72 0 -134 -26.5t-109 -74.5q-11 -13 -11 -26v-191q0 -6 7 -6h490q7 0 7 6v196z" />
    <glyph glyph-name="numero" unicode="&#x2116;" horiz-adv-x="1016" 
d="M705 419q0 -64 29.5 -99.5t81.5 -35.5t81.5 35.5t29.5 99.5t-29.5 99.5t-81.5 35.5t-81.5 -35.5t-29.5 -99.5zM654 419q0 43 12 76t33.5 56t51.5 35t65 12t65 -12t51.5 -35t33.5 -56t12 -76t-12 -76t-33.5 -56t-51.5 -35t-65 -12t-65 12t-51.5 35t-33.5 56t-12 76z
M88 684h41l395 -575v575h54v-684h-45l-391 570v-570h-54v684z" />
    <glyph glyph-name="fraction" unicode="&#x2044;" horiz-adv-x="374" 
d="M42 -14h-54l344 711h54z" />
    <glyph glyph-name="onesuperior" unicode="&#xb9;" horiz-adv-x="460" 
d="M338 406v-43h-208v43h86v303h-82v40q26 2 53 3.5t46 1.5q21 0 27.5 -7t6.5 -21v-320h71z" />
    <glyph glyph-name="twosuperior" unicode="&#xb2;" horiz-adv-x="460" 
d="M338 407v-44h-234q-2 10 -2 18q0 14 6 24.5t21 29.5l86 102q20 24 33.5 41.5t21 31.5t10.5 25.5t3 23.5q0 59 -79 59q-19 0 -40 -1.5t-46 -6.5v41q19 5 42.5 7.5t46.5 2.5q34 0 59 -7.5t43 -24.5q25 -25 25 -69q0 -18 -4 -34t-13.5 -33t-25 -37t-37.5 -45l-92 -104h176z
" />
    <glyph glyph-name="threesuperior" unicode="&#xb3;" horiz-adv-x="460" 
d="M326 653q0 -31 -14 -54t-41 -34q29 -11 48 -36t19 -63q0 -24 -7.5 -43t-21.5 -33q-38 -38 -112 -38q-21 0 -44.5 2.5t-40.5 7.5v41q18 -4 39.5 -6.5t41.5 -2.5q45 0 69.5 19t24.5 57q0 73 -97 73h-12v41h12q91 0 91 68q0 30 -16 46q-20 21 -72 21q-20 0 -39 -2t-39 -5v39
q18 4 39.5 6.5t43.5 2.5q70 0 103 -36q25 -28 25 -71z" />
    <glyph glyph-name="onehalf" unicode="&#xbd;" horiz-adv-x="900" 
d="M321 342v-43h-208v43h86v303h-82v40q26 2 53 3.5t46 1.5q21 0 27.5 -7t6.5 -21v-320h71zM306 -14h-54l344 711h54zM791 45v-44h-234q-2 10 -2 18q0 14 6 24.5t21 29.5l86 102q20 24 33.5 41.5t21 31.5t10.5 25.5t3 23.5q0 59 -79 59q-19 0 -40 -1.5t-46 -6.5v41
q19 5 42.5 7.5t46.5 2.5q34 0 59 -7.5t43 -24.5q25 -25 25 -69q0 -18 -4 -34t-13.5 -33t-25 -37t-37.5 -45l-92 -104h176z" />
    <glyph glyph-name="onequarter" unicode="&#xbc;" horiz-adv-x="900" 
d="M525 95q-3 6 -3 17q0 8 1.5 15t6.5 21l87 239h49l-92 -252h134v104h48v-104h44v-40h-44v-95h-48v95h-183zM320 341v-43h-208v43h86v303h-82v40q26 2 53 3.5t46 1.5q21 0 27.5 -7t6.5 -21v-320h71zM306 -14h-54l344 711h54z" />
    <glyph glyph-name="threequarters" unicode="&#xbe;" horiz-adv-x="900" 
d="M539 95q-3 6 -3 17q0 8 1.5 15t6.5 21l87 239h49l-92 -252h134v104h48v-104h44v-40h-44v-95h-48v95h-183zM315 -14h-54l344 711h54zM317 588q0 -31 -14 -54t-41 -34q29 -11 48 -36t19 -63q0 -24 -7.5 -43t-21.5 -33q-38 -38 -112 -38q-21 0 -44.5 2.5t-40.5 7.5v41
q18 -4 39.5 -6.5t41.5 -2.5q45 0 69.5 19t24.5 57q0 73 -97 73h-12v41h12q91 0 91 68q0 30 -16 46q-20 21 -72 21q-20 0 -39 -2t-39 -5v39q18 4 39.5 6.5t43.5 2.5q70 0 103 -36q25 -28 25 -71z" />
    <glyph glyph-name="grave" unicode="`" 
d="M281 574l-186 136l38 50l171 -157z" />
    <glyph glyph-name="acute" unicode="&#xb4;" 
d="M95 603l171 157l38 -50l-186 -136z" />
    <glyph glyph-name="dieresis" unicode="&#xa8;" 
d="M105 615q-39 0 -39 39v9q0 41 39 41h8q39 0 39 -41v-9q0 -39 -39 -39h-8zM287 615q-39 0 -39 39v9q0 41 39 41h8q39 0 39 -41v-9q0 -39 -39 -39h-8z" />
    <glyph glyph-name="circumflex" unicode="&#x2c6;" 
d="M346 604l-22 -20l-124 111l-124 -111l-22 20l116 142h60z" />
    <glyph glyph-name="tilde" unicode="&#x2dc;" 
d="M265 610q-18 0 -35 6t-33 13.5t-31 14t-30 6.5q-16 0 -25 -10.5t-17 -28.5l-36 7q5 42 24.5 65t51.5 23q19 0 36 -6.5t32.5 -14t30.5 -13.5t30 -6q16 0 25 10.5t17 28.5l36 -7q-5 -42 -24.5 -65t-51.5 -23z" />
    <glyph glyph-name="macron" unicode="&#xaf;" 
d="M78 618v49h243v-49h-243z" />
    <glyph glyph-name="breve" unicode="&#x2d8;" 
d="M200 586q-32 0 -55.5 9.5t-38.5 26.5t-22.5 40t-8.5 50h39q6 -32 24.5 -53t61.5 -21t61.5 21t24.5 53h39q-1 -27 -8.5 -50t-22.5 -40t-38.5 -26.5t-55.5 -9.5z" />
    <glyph glyph-name="dotaccent" unicode="&#x2d9;" 
d="M246 651q0 -43 -42 -43h-8q-42 0 -42 43v10q0 43 42 43h8q42 0 42 -43v-10z" />
    <glyph glyph-name="ring" unicode="&#x2da;" 
d="M309 685q0 -50 -28 -77t-79 -27h-4q-51 0 -79 27t-28 77v4q0 50 28 77t79 27h4q51 0 79 -27t28 -77v-4zM140 685q0 -59 58 -59h3q59 0 59 59v4q0 59 -59 59h-3q-58 0 -58 -59v-4z" />
    <glyph glyph-name="cedilla" unicode="&#xb8;" 
d="M178 3q-11 -19 -11 -34q0 -18 17.5 -24.5t39 -14t39 -22t17.5 -46.5q0 -34 -23.5 -53.5t-68.5 -19.5q-34 0 -68 9v40q15 -3 31 -5t32 -2q23 0 36.5 6.5t13.5 22.5q0 17 -17 24.5t-38 14.5t-38 17.5t-17 33.5q0 27 24 53h31z" />
    <glyph glyph-name="hungarumlaut" unicode="&#x2dd;" 
d="M16 606l141 185l46 -43l-159 -166zM196 606l141 185l46 -43l-159 -166z" />
    <glyph glyph-name="ogonek" unicode="&#x2db;" 
d="M113 -121q0 46 29 81.5t69 55.5l48 -1q-48 -29 -71.5 -63t-23.5 -66q0 -27 15.5 -40.5t43.5 -13.5q15 0 33.5 2t29.5 4v-38q-19 -5 -38.5 -8t-37.5 -3q-49 0 -73 25.5t-24 64.5z" />
    <glyph glyph-name="caron" unicode="&#x2c7;" 
d="M230 592h-60l-116 142l22 20l124 -111l124 111l22 -20z" />
    <glyph glyph-name="commaaccent" 
d="M192 -248v96q-19 5 -25.5 14.5t-6.5 23.5v5q0 20 11.5 28t25.5 8h4q18 -1 26.5 -12.5t8.5 -39.5q0 -27 -4.5 -61.5t-13.5 -61.5h-26z" />
    <glyph glyph-name="grave.cap" 
d="M281 754l-186 136l38 50l171 -157z" />
    <glyph glyph-name="acute.cap" 
d="M95 783l171 157l38 -50l-186 -136z" />
    <glyph glyph-name="dieresis.cap" 
d="M105 795q-39 0 -39 39v9q0 41 39 41h8q39 0 39 -41v-9q0 -39 -39 -39h-8zM287 795q-39 0 -39 39v9q0 41 39 41h8q39 0 39 -41v-9q0 -39 -39 -39h-8z" />
    <glyph glyph-name="circumflex.cap" 
d="M346 774l-22 -20l-124 111l-124 -111l-22 20l116 142h60z" />
    <glyph glyph-name="tilde.cap" 
d="M265 790q-18 0 -35 6t-33 13.5t-31 14t-30 6.5q-16 0 -25 -10.5t-17 -28.5l-36 7q5 42 24.5 65t51.5 23q19 0 36 -6.5t32.5 -14t30.5 -13.5t30 -6q16 0 25 10.5t17 28.5l36 -7q-5 -42 -24.5 -65t-51.5 -23z" />
    <glyph glyph-name="macron.cap" 
d="M78 808v49h243v-49h-243z" />
    <glyph glyph-name="breve.cap" 
d="M200 766q-32 0 -55.5 9.5t-38.5 26.5t-22.5 40t-8.5 50h39q6 -32 24.5 -53t61.5 -21t61.5 21t24.5 53h39q-1 -27 -8.5 -50t-22.5 -40t-38.5 -26.5t-55.5 -9.5z" />
    <glyph glyph-name="dotaccent.cap" 
d="M246 831q0 -43 -42 -43h-8q-42 0 -42 43v10q0 43 42 43h8q42 0 42 -43v-10z" />
    <glyph glyph-name="ring.cap" 
d="M309 865q0 -50 -28 -77t-79 -27h-4q-51 0 -79 27t-28 77v4q0 50 28 77t79 27h4q51 0 79 -27t28 -77v-4zM140 865q0 -59 58 -59h3q59 0 59 59v4q0 59 -59 59h-3q-58 0 -58 -59v-4z" />
    <glyph glyph-name="hungarumlaut.cap" 
d="M16 786l141 185l46 -43l-159 -166zM196 786l141 185l46 -43l-159 -166z" />
    <glyph glyph-name="caron.cap" 
d="M230 762h-60l-116 142l22 20l124 -111l124 111l22 -20z" />
    <glyph glyph-name="Agrave" unicode="&#xc0;" horiz-adv-x="560" 
d="M22 0l214 684h73l229 -684h-63l-61 187h-275l-57 -187h-60zM155 238h242l-125 384zM361 754l-186 136l38 50l171 -157z" />
    <glyph glyph-name="Aacute" unicode="&#xc1;" horiz-adv-x="560" 
d="M22 0l214 684h73l229 -684h-63l-61 187h-275l-57 -187h-60zM155 238h242l-125 384zM175 783l171 157l38 -50l-186 -136z" />
    <glyph glyph-name="Acircumflex" unicode="&#xc2;" horiz-adv-x="560" 
d="M22 0l214 684h73l229 -684h-63l-61 187h-275l-57 -187h-60zM155 238h242l-125 384zM426 774l-22 -20l-124 111l-124 -111l-22 20l116 142h60z" />
    <glyph glyph-name="Atilde" unicode="&#xc3;" horiz-adv-x="560" 
d="M22 0l214 684h73l229 -684h-63l-61 187h-275l-57 -187h-60zM155 238h242l-125 384zM345 790q-18 0 -35 6t-33 13.5t-31 14t-30 6.5q-16 0 -25 -10.5t-17 -28.5l-36 7q5 42 24.5 65t51.5 23q19 0 36 -6.5t32.5 -14t30.5 -13.5t30 -6q16 0 25 10.5t17 28.5l36 -7
q-5 -42 -24.5 -65t-51.5 -23z" />
    <glyph glyph-name="Adieresis" unicode="&#xc4;" horiz-adv-x="560" 
d="M22 0l214 684h73l229 -684h-63l-61 187h-275l-57 -187h-60zM155 238h242l-125 384zM185 795q-39 0 -39 39v9q0 41 39 41h8q39 0 39 -41v-9q0 -39 -39 -39h-8zM367 795q-39 0 -39 39v9q0 41 39 41h8q39 0 39 -41v-9q0 -39 -39 -39h-8z" />
    <glyph glyph-name="Amacron" unicode="&#x100;" horiz-adv-x="560" 
d="M22 0l214 684h73l229 -684h-63l-61 187h-275l-57 -187h-60zM155 238h242l-125 384zM148 808v49h243v-49h-243z" />
    <glyph glyph-name="Abreve" unicode="&#x102;" horiz-adv-x="560" 
d="M22 0l214 684h73l229 -684h-63l-61 187h-275l-57 -187h-60zM155 238h242l-125 384zM270 766q-32 0 -55.5 9.5t-38.5 26.5t-22.5 40t-8.5 50h39q6 -32 24.5 -53t61.5 -21t61.5 21t24.5 53h39q-1 -27 -8.5 -50t-22.5 -40t-38.5 -26.5t-55.5 -9.5z" />
    <glyph glyph-name="Aring" unicode="&#xc5;" horiz-adv-x="560" 
d="M22 0l214 684h73l229 -684h-63l-61 187h-275l-57 -187h-60zM155 238h242l-125 384zM380 865q0 -50 -28 -77t-79 -27h-4q-51 0 -79 27t-28 77v4q0 50 28 77t79 27h4q51 0 79 -27t28 -77v-4zM211 865q0 -59 58 -59h3q59 0 59 59v4q0 59 -59 59h-3q-58 0 -58 -59v-4z" />
    <glyph glyph-name="Aringacute" unicode="&#x1fa;" horiz-adv-x="560" 
d="M22 0l214 684h73l229 -684h-63l-61 187h-275l-57 -187h-60zM155 238h242l-125 384zM379 836q0 -50 -28 -77t-79 -27h-4q-51 0 -79 27t-28 77v4q0 50 28 77t79 27h4q51 0 79 -27t28 -77v-4zM210 836q0 -59 58 -59h3q59 0 59 59v4q0 59 -59 59h-3q-58 0 -58 -59v-4z
M165 990l171 157l38 -50l-186 -136z" />
    <glyph glyph-name="Aogonek" unicode="&#x104;" horiz-adv-x="560" 
d="M378 -121q0 45 27 79.5t65 54.5l-56 174h-275l-57 -187h-60l214 684h73l229 -684h-5q-17 0 -33 -6.5t-31 -21.5q-20 -21 -30 -43t-10 -43q0 -27 15.5 -40.5t43.5 -13.5q15 0 33.5 2t29.5 4v-38q-19 -5 -38.5 -8t-37.5 -3q-49 0 -73 25.5t-24 64.5zM155 238h242l-125 384z
" />
    <glyph glyph-name="AE" unicode="&#xc6;" horiz-adv-x="853" 
d="M491 52h308v-52h-368v182h-255l-104 -182h-62l392 684h387v-52h-298v-259h241v-53h-241v-268zM431 233v395l-226 -395h226z" />
    <glyph glyph-name="AEacute" unicode="&#x1fc;" horiz-adv-x="853" 
d="M491 52h308v-52h-368v182h-255l-104 -182h-62l392 684h387v-52h-298v-259h241v-53h-241v-268zM431 233v395l-226 -395h226zM491 783l171 157l38 -50l-186 -136z" />
    <glyph glyph-name="Cacute" unicode="&#x106;" horiz-adv-x="539" 
d="M492 6q-30 -8 -68 -14t-73 -6q-142 0 -216.5 83.5t-74.5 268.5q0 178 72.5 268.5t211.5 90.5q41 0 80.5 -7.5t69.5 -18.5l-11 -49q-32 10 -65 15.5t-65 5.5q-118 0 -174.5 -75t-56.5 -228q0 -78 13 -134t41.5 -93t74.5 -54.5t112 -17.5q30 0 61 4.5t60 10.5zM241 783
l171 157l38 -50l-186 -136z" />
    <glyph glyph-name="Ccedilla" unicode="&#xc7;" horiz-adv-x="539" 
d="M492 6q-30 -8 -68 -14t-73 -6h-4q-3 -9 -3 -17q0 -18 17.5 -24.5t39 -14t39 -22t17.5 -46.5q0 -34 -23.5 -53.5t-68.5 -19.5q-34 0 -68 9v40q15 -3 31 -5t32 -2q23 0 36.5 6.5t13.5 22.5q0 17 -17 24.5t-38 14.5t-38 17.5t-17 33.5q0 20 12 38q-62 5 -109 28t-78.5 66
t-48 106.5t-16.5 149.5q0 178 72.5 268.5t211.5 90.5q41 0 80.5 -7.5t69.5 -18.5l-11 -49q-32 10 -65 15.5t-65 5.5q-118 0 -174.5 -75t-56.5 -228q0 -78 13 -134t41.5 -93t74.5 -54.5t112 -17.5q30 0 61 4.5t60 10.5z" />
    <glyph glyph-name="Ccircumflex" unicode="&#x108;" horiz-adv-x="539" 
d="M492 6q-30 -8 -68 -14t-73 -6q-142 0 -216.5 83.5t-74.5 268.5q0 178 72.5 268.5t211.5 90.5q41 0 80.5 -7.5t69.5 -18.5l-11 -49q-32 10 -65 15.5t-65 5.5q-118 0 -174.5 -75t-56.5 -228q0 -78 13 -134t41.5 -93t74.5 -54.5t112 -17.5q30 0 61 4.5t60 10.5zM483 774
l-22 -20l-124 111l-124 -111l-22 20l116 142h60z" />
    <glyph glyph-name="Ccaron" unicode="&#x10c;" horiz-adv-x="539" 
d="M492 6q-30 -8 -68 -14t-73 -6q-142 0 -216.5 83.5t-74.5 268.5q0 178 72.5 268.5t211.5 90.5q41 0 80.5 -7.5t69.5 -18.5l-11 -49q-32 10 -65 15.5t-65 5.5q-118 0 -174.5 -75t-56.5 -228q0 -78 13 -134t41.5 -93t74.5 -54.5t112 -17.5q30 0 61 4.5t60 10.5zM377 762h-60
l-116 142l22 20l124 -111l124 111l22 -20z" />
    <glyph glyph-name="Cdotaccent" unicode="&#x10a;" horiz-adv-x="539" 
d="M492 6q-30 -8 -68 -14t-73 -6q-142 0 -216.5 83.5t-74.5 268.5q0 178 72.5 268.5t211.5 90.5q41 0 80.5 -7.5t69.5 -18.5l-11 -49q-32 10 -65 15.5t-65 5.5q-118 0 -174.5 -75t-56.5 -228q0 -78 13 -134t41.5 -93t74.5 -54.5t112 -17.5q30 0 61 4.5t60 10.5zM388 831
q0 -43 -42 -43h-8q-42 0 -42 43v10q0 43 42 43h8q42 0 42 -43v-10z" />
    <glyph glyph-name="Dcaron" unicode="&#x10e;" horiz-adv-x="628" 
d="M88 0v684h161q89 0 147.5 -16t97.5 -58q34 -37 54 -102t20 -163q0 -108 -25 -179t-63 -106q-65 -60 -207 -60h-185zM148 53h119q119 0 171 51q37 35 53 94.5t16 146.5q0 82 -14.5 138.5t-48.5 91.5q-31 32 -79 44t-117 12h-100v-578zM344 762h-60l-116 142l22 20
l124 -111l124 111l22 -20z" />
    <glyph glyph-name="Dcroat" unicode="&#x110;" horiz-adv-x="628" 
d="M88 0v319h-84v45l84 10v310h161q89 0 147.5 -16t97.5 -58q34 -37 54 -102t20 -163q0 -108 -25 -179t-63 -106q-65 -60 -207 -60h-185zM148 374h162v-55h-162v-266h119q119 0 171 51q37 35 53 94.5t16 146.5q0 82 -14.5 138.5t-48.5 91.5q-31 32 -79 44t-117 12h-100v-257
z" />
    <glyph glyph-name="Eth" unicode="&#xd0;" horiz-adv-x="628" 
d="M88 0v319h-84v45l84 10v310h161q89 0 147.5 -16t97.5 -58q34 -37 54 -102t20 -163q0 -108 -25 -179t-63 -106q-65 -60 -207 -60h-185zM148 374h162v-55h-162v-266h119q119 0 171 51q37 35 53 94.5t16 146.5q0 82 -14.5 138.5t-48.5 91.5q-31 32 -79 44t-117 12h-100v-257
z" />
    <glyph glyph-name="Egrave" unicode="&#xc8;" horiz-adv-x="510" 
d="M148 52h308v-52h-368v684h360l-7 -52h-293v-259h241v-53h-241v-268zM336 754l-186 136l38 50l171 -157z" />
    <glyph glyph-name="Eacute" unicode="&#xc9;" horiz-adv-x="510" 
d="M148 52h308v-52h-368v684h360l-7 -52h-293v-259h241v-53h-241v-268zM150 783l171 157l38 -50l-186 -136z" />
    <glyph glyph-name="Ecircumflex" unicode="&#xca;" horiz-adv-x="510" 
d="M148 52h308v-52h-368v684h360l-7 -52h-293v-259h241v-53h-241v-268zM411 774l-22 -20l-124 111l-124 -111l-22 20l116 142h60z" />
    <glyph glyph-name="Ecaron" unicode="&#x11a;" horiz-adv-x="510" 
d="M148 52h308v-52h-368v684h360l-7 -52h-293v-259h241v-53h-241v-268zM305 762h-60l-116 142l22 20l124 -111l124 111l22 -20z" />
    <glyph glyph-name="Edieresis" unicode="&#xcb;" horiz-adv-x="510" 
d="M148 52h308v-52h-368v684h360l-7 -52h-293v-259h241v-53h-241v-268zM180 795q-39 0 -39 39v9q0 41 39 41h8q39 0 39 -41v-9q0 -39 -39 -39h-8zM362 795q-39 0 -39 39v9q0 41 39 41h8q39 0 39 -41v-9q0 -39 -39 -39h-8z" />
    <glyph glyph-name="Emacron" unicode="&#x112;" horiz-adv-x="510" 
d="M148 52h308v-52h-368v684h360l-7 -52h-293v-259h241v-53h-241v-268zM153 808v49h243v-49h-243z" />
    <glyph glyph-name="Ebreve" unicode="&#x114;" horiz-adv-x="510" 
d="M148 52h308v-52h-368v684h360l-7 -52h-293v-259h241v-53h-241v-268zM275 766q-32 0 -55.5 9.5t-38.5 26.5t-22.5 40t-8.5 50h39q6 -32 24.5 -53t61.5 -21t61.5 21t24.5 53h39q-1 -27 -8.5 -50t-22.5 -40t-38.5 -26.5t-55.5 -9.5z" />
    <glyph glyph-name="Edotaccent" unicode="&#x116;" horiz-adv-x="510" 
d="M148 52h308v-52h-368v684h360l-7 -52h-293v-259h241v-53h-241v-268zM321 831q0 -43 -42 -43h-8q-42 0 -42 43v10q0 43 42 43h8q42 0 42 -43v-10z" />
    <glyph glyph-name="Eogonek" unicode="&#x118;" horiz-adv-x="510" 
d="M148 52h308v-52h-18q-17 0 -31 -7t-28 -21q-20 -21 -30 -43t-10 -43q0 -27 15.5 -40.5t43.5 -13.5q15 0 33.5 2t29.5 4v-38q-19 -5 -38.5 -8t-37.5 -3q-49 0 -73 25.5t-24 64.5q0 38 20 69t50 52h-270v684h360l-7 -52h-293v-259h241v-53h-241v-268z" />
    <glyph glyph-name="Gcircumflex" unicode="&#x11c;" horiz-adv-x="614" 
d="M509 625q-33 9 -67.5 14t-71.5 5q-130 0 -189 -78t-59 -228q0 -84 16 -141t47 -92t77.5 -50t106.5 -15q24 0 55 2.5t51 6.5v237h-121v51h178v-328q-15 -5 -36 -9t-44 -7t-46 -5t-41 -2q-71 0 -127.5 19t-96 60.5t-60.5 107.5t-21 160q0 177 77.5 270.5t225.5 93.5
q42 0 83.5 -6.5t73.5 -17.5zM503 774l-22 -20l-124 111l-124 -111l-22 20l116 142h60z" />
    <glyph glyph-name="Gbreve" unicode="&#x11e;" horiz-adv-x="614" 
d="M509 625q-33 9 -67.5 14t-71.5 5q-130 0 -189 -78t-59 -228q0 -84 16 -141t47 -92t77.5 -50t106.5 -15q24 0 55 2.5t51 6.5v237h-121v51h178v-328q-15 -5 -36 -9t-44 -7t-46 -5t-41 -2q-71 0 -127.5 19t-96 60.5t-60.5 107.5t-21 160q0 177 77.5 270.5t225.5 93.5
q42 0 83.5 -6.5t73.5 -17.5zM357 766q-32 0 -55.5 9.5t-38.5 26.5t-22.5 40t-8.5 50h39q6 -32 24.5 -53t61.5 -21t61.5 21t24.5 53h39q-1 -27 -8.5 -50t-22.5 -40t-38.5 -26.5t-55.5 -9.5z" />
    <glyph glyph-name="Gdotaccent" unicode="&#x120;" horiz-adv-x="614" 
d="M509 625q-33 9 -67.5 14t-71.5 5q-130 0 -189 -78t-59 -228q0 -84 16 -141t47 -92t77.5 -50t106.5 -15q24 0 55 2.5t51 6.5v237h-121v51h178v-328q-15 -5 -36 -9t-44 -7t-46 -5t-41 -2q-71 0 -127.5 19t-96 60.5t-60.5 107.5t-21 160q0 177 77.5 270.5t225.5 93.5
q42 0 83.5 -6.5t73.5 -17.5zM403 831q0 -43 -42 -43h-8q-42 0 -42 43v10q0 43 42 43h8q42 0 42 -43v-10z" />
    <glyph glyph-name="Gcommaaccent" unicode="&#x122;" horiz-adv-x="614" 
d="M509 625q-33 9 -67.5 14t-71.5 5q-130 0 -189 -78t-59 -228q0 -84 16 -141t47 -92t77.5 -50t106.5 -15q24 0 55 2.5t51 6.5v237h-121v51h178v-328q-15 -5 -36 -9t-44 -7t-46 -5t-41 -2q-71 0 -127.5 19t-96 60.5t-60.5 107.5t-21 160q0 177 77.5 270.5t225.5 93.5
q42 0 83.5 -6.5t73.5 -17.5zM343 -248v96q-19 5 -25.5 14.5t-6.5 23.5v5q0 20 11.5 28t25.5 8h4q18 -1 26.5 -12.5t8.5 -39.5q0 -27 -4.5 -61.5t-13.5 -61.5h-26z" />
    <glyph glyph-name="Hcircumflex" unicode="&#x124;" horiz-adv-x="641" 
d="M494 684h59v-684h-59v320h-346v-320h-60v684h60v-311h346v311zM466 774l-22 -20l-124 111l-124 -111l-22 20l116 142h60z" />
    <glyph glyph-name="Hbar" unicode="&#x126;" horiz-adv-x="661" 
d="M563 508v-508h-59v320h-346v-320h-60v508h-70v50h70v126h60v-126h346v126h59v-126h70v-50h-70zM504 508h-346v-135h346v135z" />
    <glyph glyph-name="Igrave" unicode="&#xcc;" horiz-adv-x="240" 
d="M90 684h60v-684h-60v684zM203 754l-186 136l38 50l171 -157z" />
    <glyph glyph-name="Iacute" unicode="&#xcd;" horiz-adv-x="240" 
d="M90 684h60v-684h-60v684zM17 783l171 157l38 -50l-186 -136z" />
    <glyph glyph-name="Icircumflex" unicode="&#xce;" horiz-adv-x="240" 
d="M90 684h60v-684h-60v684zM267 774l-22 -20l-124 111l-124 -111l-22 20l116 142h60z" />
    <glyph glyph-name="Itilde" unicode="&#x128;" horiz-adv-x="240" 
d="M90 684h60v-684h-60v684zM187 790q-18 0 -35 6t-33 13.5t-31 14t-30 6.5q-16 0 -25 -10.5t-17 -28.5l-36 7q5 42 24.5 65t51.5 23q19 0 36 -6.5t32.5 -14t30.5 -13.5t30 -6q16 0 25 10.5t17 28.5l36 -7q-5 -42 -24.5 -65t-51.5 -23z" />
    <glyph glyph-name="Idieresis" unicode="&#xcf;" horiz-adv-x="240" 
d="M90 684h60v-684h-60v684zM26 795q-39 0 -39 39v9q0 41 39 41h8q39 0 39 -41v-9q0 -39 -39 -39h-8zM208 795q-39 0 -39 39v9q0 41 39 41h8q39 0 39 -41v-9q0 -39 -39 -39h-8z" />
    <glyph glyph-name="Imacron" unicode="&#x12a;" horiz-adv-x="240" 
d="M90 684h60v-684h-60v684zM0 808v49h243v-49h-243z" />
    <glyph glyph-name="Ibreve" unicode="&#x12c;" horiz-adv-x="240" 
d="M90 684h60v-684h-60v684zM121 766q-32 0 -55.5 9.5t-38.5 26.5t-22.5 40t-8.5 50h39q6 -32 24.5 -53t61.5 -21t61.5 21t24.5 53h39q-1 -27 -8.5 -50t-22.5 -40t-38.5 -26.5t-55.5 -9.5z" />
    <glyph glyph-name="Idotaccent" unicode="&#x130;" horiz-adv-x="240" 
d="M90 684h60v-684h-60v684zM167 831q0 -43 -42 -43h-8q-42 0 -42 43v10q0 43 42 43h8q42 0 42 -43v-10z" />
    <glyph glyph-name="Iogonek" unicode="&#x12e;" horiz-adv-x="240" 
d="M0 -121q0 21 7 42t19.5 39t29 32t34.5 22v670h60v-684h-3q-17 0 -30 -5.5t-28 -20.5q-20 -21 -29 -44t-9 -44q0 -27 15.5 -40.5t43.5 -13.5q15 0 33.5 2t29.5 4v-38q-19 -5 -38.5 -8t-37.5 -3q-49 0 -73 25.5t-24 64.5z" />
    <glyph glyph-name="IJ" unicode="&#x132;" horiz-adv-x="591" 
d="M90 684h60v-684h-60v684zM278 43q12 -2 28.5 -2.5t30.5 -0.5q28 0 50.5 4.5t36.5 17.5q16 14 21 38.5t5 77.5v506h59v-501q0 -36 -2.5 -61t-7 -43t-11.5 -30t-16 -22q-19 -20 -49.5 -30.5t-78.5 -10.5q-14 0 -30.5 1.5t-29.5 3.5z" />
    <glyph glyph-name="Jcircumflex" unicode="&#x134;" horiz-adv-x="351" 
d="M38 43q12 -2 28.5 -2.5t30.5 -0.5q28 0 50.5 4.5t36.5 17.5q16 14 21 38.5t5 77.5v506h59v-501q0 -36 -2.5 -61t-7 -43t-11.5 -30t-16 -22q-19 -20 -49.5 -30.5t-78.5 -10.5q-14 0 -30.5 1.5t-29.5 3.5zM387 774l-22 -20l-124 111l-124 -111l-22 20l116 142h60z" />
    <glyph glyph-name="Kcommaaccent" unicode="&#x136;" horiz-adv-x="565" 
d="M289 403l244 -403h-67l-214 358l-104 -129v-229h-60v684h60v-379l303 379h66zM289 -248v96q-19 5 -25.5 14.5t-6.5 23.5v5q0 20 11.5 28t25.5 8h4q18 -1 26.5 -12.5t8.5 -39.5q0 -27 -4.5 -61.5t-13.5 -61.5h-26z" />
    <glyph glyph-name="Lacute" unicode="&#x139;" horiz-adv-x="484" 
d="M88 684h60v-632h296v-52h-356v684zM60 783l171 157l38 -50l-186 -136z" />
    <glyph glyph-name="Lcaron" unicode="&#x13d;" horiz-adv-x="484" 
d="M88 684h60v-632h296v-52h-356v684zM267 522v96q-19 5 -25.5 14.5t-6.5 23.5v5q0 20 11.5 28t25.5 8h4q18 -1 26.5 -12.5t8.5 -39.5q0 -27 -4.5 -61.5t-13.5 -61.5h-26z" />
    <glyph glyph-name="Lcommaaccent" unicode="&#x13b;" horiz-adv-x="484" 
d="M88 684h60v-632h296v-52h-356v684zM276 -248v96q-19 5 -25.5 14.5t-6.5 23.5v5q0 20 11.5 28t25.5 8h4q18 -1 26.5 -12.5t8.5 -39.5q0 -27 -4.5 -61.5t-13.5 -61.5h-26z" />
    <glyph glyph-name="Lslash" unicode="&#x141;" horiz-adv-x="484" 
d="M88 256l-75 -49l-25 42l100 65v370h60v-330l117 77l25 -42l-142 -93v-244h296v-52h-356v256z" />
    <glyph glyph-name="Ldot" unicode="&#x13f;" horiz-adv-x="484" 
d="M88 684h60v-632h296v-52h-356v684zM368 370q0 -43 -42 -43h-8q-42 0 -42 43v10q0 43 42 43h8q42 0 42 -43v-10z" />
    <glyph glyph-name="Nacute" unicode="&#x143;" horiz-adv-x="666" 
d="M88 684h41l395 -575v575h54v-684h-45l-391 570v-570h-54v684zM252 783l171 157l38 -50l-186 -136z" />
    <glyph glyph-name="Ncaron" unicode="&#x147;" horiz-adv-x="666" 
d="M88 684h41l395 -575v575h54v-684h-45l-391 570v-570h-54v684zM363 762h-60l-116 142l22 20l124 -111l124 111l22 -20z" />
    <glyph glyph-name="Ntilde" unicode="&#xd1;" horiz-adv-x="666" 
d="M88 684h41l395 -575v575h54v-684h-45l-391 570v-570h-54v684zM398 790q-18 0 -35 6t-33 13.5t-31 14t-30 6.5q-16 0 -25 -10.5t-17 -28.5l-36 7q5 42 24.5 65t51.5 23q19 0 36 -6.5t32.5 -14t30.5 -13.5t30 -6q16 0 25 10.5t17 28.5l36 -7q-5 -42 -24.5 -65t-51.5 -23z
" />
    <glyph glyph-name="Ncommaaccent" unicode="&#x145;" horiz-adv-x="666" 
d="M88 684h41l395 -575v575h54v-684h-45l-391 570v-570h-54v684zM327 -248v96q-19 5 -25.5 14.5t-6.5 23.5v5q0 20 11.5 28t25.5 8h4q18 -1 26.5 -12.5t8.5 -39.5q0 -27 -4.5 -61.5t-13.5 -61.5h-26z" />
    <glyph glyph-name="Eng" unicode="&#x14a;" horiz-adv-x="666" 
d="M352 -187q12 -2 28.5 -2.5t30.5 -0.5q28 0 50.5 4.5t36.5 17.5q16 14 21 38.5t5 77.5v65l-382 557v-570h-54v684h41l395 -575v575h54v-726q0 -36 -2.5 -61t-7 -43t-11.5 -30t-16 -22q-19 -20 -49.5 -30.5t-78.5 -10.5q-14 0 -30.5 1.5t-29.5 3.5z" />
    <glyph glyph-name="Ograve" unicode="&#xd2;" horiz-adv-x="640" 
d="M580 341q0 -172 -63.5 -263.5t-196.5 -91.5t-196.5 91.5t-63.5 263.5t63.5 264t196.5 92t196.5 -92t63.5 -264zM518 341q0 69 -10 124.5t-33.5 94.5t-61.5 59.5t-93 20.5q-56 0 -93.5 -20.5t-61 -59.5t-33.5 -94.5t-10 -124.5t10 -124.5t33.5 -94t61 -59t93.5 -20.5
q55 0 93 20.5t61.5 59t33.5 94t10 124.5zM401 754l-186 136l38 50l171 -157z" />
    <glyph glyph-name="Oacute" unicode="&#xd3;" horiz-adv-x="640" 
d="M580 341q0 -172 -63.5 -263.5t-196.5 -91.5t-196.5 91.5t-63.5 263.5t63.5 264t196.5 92t196.5 -92t63.5 -264zM518 341q0 69 -10 124.5t-33.5 94.5t-61.5 59.5t-93 20.5q-56 0 -93.5 -20.5t-61 -59.5t-33.5 -94.5t-10 -124.5t10 -124.5t33.5 -94t61 -59t93.5 -20.5
q55 0 93 20.5t61.5 59t33.5 94t10 124.5zM215 783l171 157l38 -50l-186 -136z" />
    <glyph glyph-name="Ocircumflex" unicode="&#xd4;" horiz-adv-x="640" 
d="M580 341q0 -172 -63.5 -263.5t-196.5 -91.5t-196.5 91.5t-63.5 263.5t63.5 264t196.5 92t196.5 -92t63.5 -264zM518 341q0 69 -10 124.5t-33.5 94.5t-61.5 59.5t-93 20.5q-56 0 -93.5 -20.5t-61 -59.5t-33.5 -94.5t-10 -124.5t10 -124.5t33.5 -94t61 -59t93.5 -20.5
q55 0 93 20.5t61.5 59t33.5 94t10 124.5zM466 774l-22 -20l-124 111l-124 -111l-22 20l116 142h60z" />
    <glyph glyph-name="Otilde" unicode="&#xd5;" horiz-adv-x="640" 
d="M580 341q0 -172 -63.5 -263.5t-196.5 -91.5t-196.5 91.5t-63.5 263.5t63.5 264t196.5 92t196.5 -92t63.5 -264zM518 341q0 69 -10 124.5t-33.5 94.5t-61.5 59.5t-93 20.5q-56 0 -93.5 -20.5t-61 -59.5t-33.5 -94.5t-10 -124.5t10 -124.5t33.5 -94t61 -59t93.5 -20.5
q55 0 93 20.5t61.5 59t33.5 94t10 124.5zM385 790q-18 0 -35 6t-33 13.5t-31 14t-30 6.5q-16 0 -25 -10.5t-17 -28.5l-36 7q5 42 24.5 65t51.5 23q19 0 36 -6.5t32.5 -14t30.5 -13.5t30 -6q16 0 25 10.5t17 28.5l36 -7q-5 -42 -24.5 -65t-51.5 -23z" />
    <glyph glyph-name="Odieresis" unicode="&#xd6;" horiz-adv-x="640" 
d="M580 341q0 -172 -63.5 -263.5t-196.5 -91.5t-196.5 91.5t-63.5 263.5t63.5 264t196.5 92t196.5 -92t63.5 -264zM518 341q0 69 -10 124.5t-33.5 94.5t-61.5 59.5t-93 20.5q-56 0 -93.5 -20.5t-61 -59.5t-33.5 -94.5t-10 -124.5t10 -124.5t33.5 -94t61 -59t93.5 -20.5
q55 0 93 20.5t61.5 59t33.5 94t10 124.5zM225 795q-39 0 -39 39v9q0 41 39 41h8q39 0 39 -41v-9q0 -39 -39 -39h-8zM407 795q-39 0 -39 39v9q0 41 39 41h8q39 0 39 -41v-9q0 -39 -39 -39h-8z" />
    <glyph glyph-name="Omacron" unicode="&#x14c;" horiz-adv-x="640" 
d="M580 341q0 -172 -63.5 -263.5t-196.5 -91.5t-196.5 91.5t-63.5 263.5t63.5 264t196.5 92t196.5 -92t63.5 -264zM518 341q0 69 -10 124.5t-33.5 94.5t-61.5 59.5t-93 20.5q-56 0 -93.5 -20.5t-61 -59.5t-33.5 -94.5t-10 -124.5t10 -124.5t33.5 -94t61 -59t93.5 -20.5
q55 0 93 20.5t61.5 59t33.5 94t10 124.5zM198 808v49h243v-49h-243z" />
    <glyph glyph-name="Obreve" unicode="&#x14e;" horiz-adv-x="640" 
d="M580 341q0 -172 -63.5 -263.5t-196.5 -91.5t-196.5 91.5t-63.5 263.5t63.5 264t196.5 92t196.5 -92t63.5 -264zM518 341q0 69 -10 124.5t-33.5 94.5t-61.5 59.5t-93 20.5q-56 0 -93.5 -20.5t-61 -59.5t-33.5 -94.5t-10 -124.5t10 -124.5t33.5 -94t61 -59t93.5 -20.5
q55 0 93 20.5t61.5 59t33.5 94t10 124.5zM320 766q-32 0 -55.5 9.5t-38.5 26.5t-22.5 40t-8.5 50h39q6 -32 24.5 -53t61.5 -21t61.5 21t24.5 53h39q-1 -27 -8.5 -50t-22.5 -40t-38.5 -26.5t-55.5 -9.5z" />
    <glyph glyph-name="Ohungarumlaut" unicode="&#x150;" horiz-adv-x="640" 
d="M580 341q0 -172 -63.5 -263.5t-196.5 -91.5t-196.5 91.5t-63.5 263.5t63.5 264t196.5 92t196.5 -92t63.5 -264zM518 341q0 69 -10 124.5t-33.5 94.5t-61.5 59.5t-93 20.5q-56 0 -93.5 -20.5t-61 -59.5t-33.5 -94.5t-10 -124.5t10 -124.5t33.5 -94t61 -59t93.5 -20.5
q55 0 93 20.5t61.5 59t33.5 94t10 124.5zM146 786l141 185l46 -43l-159 -166zM326 786l141 185l46 -43l-159 -166z" />
    <glyph glyph-name="Oslash" unicode="&#xd8;" horiz-adv-x="640" 
d="M580 341q0 -172 -63.5 -263.5t-196.5 -91.5q-58 0 -103 18l-30 -78h-53l39 101q-113 82 -113 314q0 172 63.5 264t196.5 92q60 0 104 -19l31 79h53l-40 -103q57 -42 84.5 -120.5t27.5 -192.5zM122 341q0 -89 16.5 -154t57.5 -102l207 539q-37 16 -83 16
q-56 0 -93.5 -20.5t-61 -59.5t-33.5 -94.5t-10 -124.5zM518 341q0 88 -16.5 152.5t-56.5 102.5l-207 -538q34 -15 82 -15q55 0 93 20.5t61.5 59t33.5 94t10 124.5z" />
    <glyph glyph-name="Oslashacute" unicode="&#x1fe;" horiz-adv-x="640" 
d="M580 341q0 -172 -63.5 -263.5t-196.5 -91.5q-58 0 -103 18l-30 -78h-53l39 101q-113 82 -113 314q0 172 63.5 264t196.5 92q60 0 104 -19l31 79h53l-40 -103q57 -42 84.5 -120.5t27.5 -192.5zM122 341q0 -89 16.5 -154t57.5 -102l207 539q-37 16 -83 16
q-56 0 -93.5 -20.5t-61 -59.5t-33.5 -94.5t-10 -124.5zM518 341q0 88 -16.5 152.5t-56.5 102.5l-207 -538q34 -15 82 -15q55 0 93 20.5t61.5 59t33.5 94t10 124.5zM215 783l171 157l38 -50l-186 -136z" />
    <glyph glyph-name="OE" unicode="&#x152;" horiz-adv-x="878" 
d="M516 52h308v-52h-421q-90 0 -152 17t-106 63q-39 41 -62 106.5t-23 155.5t23 155.5t62 106.5q44 46 106 63t152 17h413l-7 -52h-293v-259h241v-53h-241v-268zM189 117q34 -37 85.5 -51t128.5 -14h53v580h-55q-77 0 -127.5 -14t-84.5 -51q-68 -73 -68 -225t68 -225z" />
    <glyph glyph-name="Thorn" unicode="&#xde;" horiz-adv-x="557" 
d="M148 0h-60v684h60v-120h130q60 0 103.5 -11.5t75.5 -42.5q23 -23 36.5 -61.5t13.5 -88.5q0 -54 -12 -93.5t-39 -68.5q-26 -27 -64 -41t-94 -14h-150v-143zM148 196h126q28 0 49 2t36.5 6.5t27 11.5t21.5 17q20 20 28.5 50.5t8.5 74.5q0 38 -9 67t-25 47
q-20 23 -51.5 31.5t-87.5 8.5h-124v-316z" />
    <glyph glyph-name="Racute" unicode="&#x154;" horiz-adv-x="578" 
d="M148 269v-269h-60v684h191q68 0 112 -14t70 -44q21 -24 34.5 -58.5t13.5 -87.5q0 -83 -34.5 -131t-96.5 -67l146 -282h-65l-137 271q-8 -1 -20.5 -1.5t-23.5 -0.5h-130zM148 322h134q42 0 72.5 8.5t50.5 27.5q23 22 32.5 52.5t9.5 70.5q0 38 -8.5 64.5t-26.5 46.5
q-17 20 -49.5 30t-87.5 10h-127v-310zM204 783l171 157l38 -50l-186 -136z" />
    <glyph glyph-name="Rcaron" unicode="&#x158;" horiz-adv-x="578" 
d="M148 269v-269h-60v684h191q68 0 112 -14t70 -44q21 -24 34.5 -58.5t13.5 -87.5q0 -83 -34.5 -131t-96.5 -67l146 -282h-65l-137 271q-8 -1 -20.5 -1.5t-23.5 -0.5h-130zM148 322h134q42 0 72.5 8.5t50.5 27.5q23 22 32.5 52.5t9.5 70.5q0 38 -8.5 64.5t-26.5 46.5
q-17 20 -49.5 30t-87.5 10h-127v-310zM333 762h-60l-116 142l22 20l124 -111l124 111l22 -20z" />
    <glyph glyph-name="Rcommaaccent" unicode="&#x156;" horiz-adv-x="578" 
d="M148 269v-269h-60v684h191q68 0 112 -14t70 -44q21 -24 34.5 -58.5t13.5 -87.5q0 -83 -34.5 -131t-96.5 -67l146 -282h-65l-137 271q-8 -1 -20.5 -1.5t-23.5 -0.5h-130zM148 322h134q42 0 72.5 8.5t50.5 27.5q23 22 32.5 52.5t9.5 70.5q0 38 -8.5 64.5t-26.5 46.5
q-17 20 -49.5 30t-87.5 10h-127v-310zM301 -248v96q-19 5 -25.5 14.5t-6.5 23.5v5q0 20 11.5 28t25.5 8h4q18 -1 26.5 -12.5t8.5 -39.5q0 -27 -4.5 -61.5t-13.5 -61.5h-26z" />
    <glyph glyph-name="Sacute" unicode="&#x15a;" horiz-adv-x="523" 
d="M416 625q-69 19 -143 19q-75 0 -117.5 -27t-42.5 -89q0 -44 26 -71.5t65 -48t85 -38.5t85 -42.5t65 -61t26 -94.5q0 -95 -60 -140.5t-166 -45.5q-54 0 -97.5 7.5t-85.5 21.5l11 51q40 -13 81 -20t83 -7q48 0 80 7.5t54 24.5q20 16 31.5 40.5t11.5 58.5q0 47 -26 76
t-65 49.5t-85 38t-85 41t-65 58t-26 89.5q0 39 12 68.5t32 50.5q29 30 73 43t97 13q43 0 83.5 -6.5t73.5 -17.5zM157 783l171 157l38 -50l-186 -136z" />
    <glyph glyph-name="Scircumflex" unicode="&#x15c;" horiz-adv-x="523" 
d="M416 625q-69 19 -143 19q-75 0 -117.5 -27t-42.5 -89q0 -44 26 -71.5t65 -48t85 -38.5t85 -42.5t65 -61t26 -94.5q0 -95 -60 -140.5t-166 -45.5q-54 0 -97.5 7.5t-85.5 21.5l11 51q40 -13 81 -20t83 -7q48 0 80 7.5t54 24.5q20 16 31.5 40.5t11.5 58.5q0 47 -26 76
t-65 49.5t-85 38t-85 41t-65 58t-26 89.5q0 39 12 68.5t32 50.5q29 30 73 43t97 13q43 0 83.5 -6.5t73.5 -17.5zM409 774l-22 -20l-124 111l-124 -111l-22 20l116 142h60z" />
    <glyph glyph-name="Scaron" unicode="&#x160;" horiz-adv-x="523" 
d="M416 625q-69 19 -143 19q-75 0 -117.5 -27t-42.5 -89q0 -44 26 -71.5t65 -48t85 -38.5t85 -42.5t65 -61t26 -94.5q0 -95 -60 -140.5t-166 -45.5q-54 0 -97.5 7.5t-85.5 21.5l11 51q40 -13 81 -20t83 -7q48 0 80 7.5t54 24.5q20 16 31.5 40.5t11.5 58.5q0 47 -26 76
t-65 49.5t-85 38t-85 41t-65 58t-26 89.5q0 39 12 68.5t32 50.5q29 30 73 43t97 13q43 0 83.5 -6.5t73.5 -17.5zM291 762h-60l-116 142l22 20l124 -111l124 111l22 -20z" />
    <glyph glyph-name="Scedilla" unicode="&#x15e;" horiz-adv-x="523" 
d="M416 625q-69 19 -143 19q-75 0 -117.5 -27t-42.5 -89q0 -44 26 -71.5t65 -48t85 -38.5t85 -42.5t65 -61t26 -94.5q0 -92 -56 -137.5t-155 -48.5q-3 -9 -3 -17q0 -18 17.5 -24.5t39 -14t39 -22t17.5 -46.5q0 -34 -23.5 -53.5t-68.5 -19.5q-34 0 -68 9v40q15 -3 31 -5
t32 -2q23 0 36.5 6.5t13.5 22.5q0 17 -17 24.5t-38 14.5t-38 17.5t-17 33.5q0 19 11 36q-47 2 -86 9.5t-76 19.5l11 51q40 -13 81 -20t83 -7q48 0 80 7.5t54 24.5q20 16 31.5 40.5t11.5 58.5q0 47 -26 76t-65 49.5t-85 38t-85 41t-65 58t-26 89.5q0 39 12 68.5t32 50.5
q29 30 73 43t97 13q43 0 83.5 -6.5t73.5 -17.5z" />
    <glyph glyph-name="Scommaaccent" unicode="&#x218;" horiz-adv-x="523" 
d="M416 625q-69 19 -143 19q-75 0 -117.5 -27t-42.5 -89q0 -44 26 -71.5t65 -48t85 -38.5t85 -42.5t65 -61t26 -94.5q0 -95 -60 -140.5t-166 -45.5q-54 0 -97.5 7.5t-85.5 21.5l11 51q40 -13 81 -20t83 -7q48 0 80 7.5t54 24.5q20 16 31.5 40.5t11.5 58.5q0 47 -26 76
t-65 49.5t-85 38t-85 41t-65 58t-26 89.5q0 39 12 68.5t32 50.5q29 30 73 43t97 13q43 0 83.5 -6.5t73.5 -17.5zM253 -248v96q-19 5 -25.5 14.5t-6.5 23.5v5q0 20 11.5 28t25.5 8h4q18 -1 26.5 -12.5t8.5 -39.5q0 -27 -4.5 -61.5t-13.5 -61.5h-26z" />
    <glyph glyph-name="Tcaron" unicode="&#x164;" horiz-adv-x="550" 
d="M26 684h503l-7 -52h-216v-632h-60v632h-220v52zM305 762h-60l-116 142l22 20l124 -111l124 111l22 -20z" />
    <glyph glyph-name="Tcommaaccent" unicode="&#x162;" horiz-adv-x="550" 
d="M26 684h503l-7 -52h-216v-632h-60v632h-220v52zM269 -248v96q-19 5 -25.5 14.5t-6.5 23.5v5q0 20 11.5 28t25.5 8h4q18 -1 26.5 -12.5t8.5 -39.5q0 -27 -4.5 -61.5t-13.5 -61.5h-26z" />
    <glyph glyph-name="uni021A" unicode="&#x21a;" horiz-adv-x="550" 
d="M26 684h503l-7 -52h-216v-632h-60v632h-220v52zM269 -248v96q-19 5 -25.5 14.5t-6.5 23.5v5q0 20 11.5 28t25.5 8h4q18 -1 26.5 -12.5t8.5 -39.5q0 -27 -4.5 -61.5t-13.5 -61.5h-26z" />
    <glyph glyph-name="Tbar" unicode="&#x166;" horiz-adv-x="550" 
d="M26 684h503l-7 -52h-216v-265h134v-48h-134v-319h-60v319h-134v48h134v265h-220v52z" />
    <glyph glyph-name="Ugrave" unicode="&#xd9;" horiz-adv-x="637" 
d="M142 236q0 -55 10.5 -92t33.5 -60q43 -42 139 -42q82 0 125 38q51 47 51 156v448h54v-456q0 -66 -15.5 -110.5t-45.5 -73.5q-60 -58 -172 -58q-124 0 -182 60q-31 32 -44.5 76.5t-13.5 110.5v451h60v-448zM400 754l-186 136l38 50l171 -157z" />
    <glyph glyph-name="Uacute" unicode="&#xda;" horiz-adv-x="637" 
d="M142 236q0 -55 10.5 -92t33.5 -60q43 -42 139 -42q82 0 125 38q51 47 51 156v448h54v-456q0 -66 -15.5 -110.5t-45.5 -73.5q-60 -58 -172 -58q-124 0 -182 60q-31 32 -44.5 76.5t-13.5 110.5v451h60v-448zM214 783l171 157l38 -50l-186 -136z" />
    <glyph glyph-name="Ucircumflex" unicode="&#xdb;" horiz-adv-x="637" 
d="M142 236q0 -55 10.5 -92t33.5 -60q43 -42 139 -42q82 0 125 38q51 47 51 156v448h54v-456q0 -66 -15.5 -110.5t-45.5 -73.5q-60 -58 -172 -58q-124 0 -182 60q-31 32 -44.5 76.5t-13.5 110.5v451h60v-448zM464 774l-22 -20l-124 111l-124 -111l-22 20l116 142h60z" />
    <glyph glyph-name="Utilde" unicode="&#x168;" horiz-adv-x="637" 
d="M142 236q0 -55 10.5 -92t33.5 -60q43 -42 139 -42q82 0 125 38q51 47 51 156v448h54v-456q0 -66 -15.5 -110.5t-45.5 -73.5q-60 -58 -172 -58q-124 0 -182 60q-31 32 -44.5 76.5t-13.5 110.5v451h60v-448zM394 790q-18 0 -35 6t-33 13.5t-31 14t-30 6.5q-16 0 -25 -10.5
t-17 -28.5l-36 7q5 42 24.5 65t51.5 23q19 0 36 -6.5t32.5 -14t30.5 -13.5t30 -6q16 0 25 10.5t17 28.5l36 -7q-5 -42 -24.5 -65t-51.5 -23z" />
    <glyph glyph-name="Udieresis" unicode="&#xdc;" horiz-adv-x="637" 
d="M142 236q0 -55 10.5 -92t33.5 -60q43 -42 139 -42q82 0 125 38q51 47 51 156v448h54v-456q0 -66 -15.5 -110.5t-45.5 -73.5q-60 -58 -172 -58q-124 0 -182 60q-31 32 -44.5 76.5t-13.5 110.5v451h60v-448zM223 795q-39 0 -39 39v9q0 41 39 41h8q39 0 39 -41v-9
q0 -39 -39 -39h-8zM405 795q-39 0 -39 39v9q0 41 39 41h8q39 0 39 -41v-9q0 -39 -39 -39h-8z" />
    <glyph glyph-name="Umacron" unicode="&#x16a;" horiz-adv-x="637" 
d="M142 236q0 -55 10.5 -92t33.5 -60q43 -42 139 -42q82 0 125 38q51 47 51 156v448h54v-456q0 -66 -15.5 -110.5t-45.5 -73.5q-60 -58 -172 -58q-124 0 -182 60q-31 32 -44.5 76.5t-13.5 110.5v451h60v-448zM197 808v49h243v-49h-243z" />
    <glyph glyph-name="Ubreve" unicode="&#x16c;" horiz-adv-x="637" 
d="M142 236q0 -55 10.5 -92t33.5 -60q43 -42 139 -42q82 0 125 38q51 47 51 156v448h54v-456q0 -66 -15.5 -110.5t-45.5 -73.5q-60 -58 -172 -58q-124 0 -182 60q-31 32 -44.5 76.5t-13.5 110.5v451h60v-448zM318 766q-32 0 -55.5 9.5t-38.5 26.5t-22.5 40t-8.5 50h39
q6 -32 24.5 -53t61.5 -21t61.5 21t24.5 53h39q-1 -27 -8.5 -50t-22.5 -40t-38.5 -26.5t-55.5 -9.5z" />
    <glyph glyph-name="Uring" unicode="&#x16e;" horiz-adv-x="637" 
d="M142 236q0 -55 10.5 -92t33.5 -60q43 -42 139 -42q82 0 125 38q51 47 51 156v448h54v-456q0 -66 -15.5 -110.5t-45.5 -73.5q-60 -58 -172 -58q-124 0 -182 60q-31 32 -44.5 76.5t-13.5 110.5v451h60v-448zM427 865q0 -50 -28 -77t-79 -27h-4q-51 0 -79 27t-28 77v4
q0 50 28 77t79 27h4q51 0 79 -27t28 -77v-4zM258 865q0 -59 58 -59h3q59 0 59 59v4q0 59 -59 59h-3q-58 0 -58 -59v-4z" />
    <glyph glyph-name="Uhungarumlaut" unicode="&#x170;" horiz-adv-x="637" 
d="M142 236q0 -55 10.5 -92t33.5 -60q43 -42 139 -42q82 0 125 38q51 47 51 156v448h54v-456q0 -66 -15.5 -110.5t-45.5 -73.5q-60 -58 -172 -58q-124 0 -182 60q-31 32 -44.5 76.5t-13.5 110.5v451h60v-448zM165 786l141 185l46 -43l-159 -166zM345 786l141 185l46 -43
l-159 -166z" />
    <glyph glyph-name="Uogonek" unicode="&#x172;" horiz-adv-x="637" 
d="M254 -121q0 32 15 59.5t38 47.5q-113 4 -167 60q-31 32 -44.5 76.5t-13.5 110.5v451h60v-448q0 -55 10.5 -92t33.5 -60q43 -42 139 -42q82 0 125 38q51 47 51 156v448h54v-456q0 -66 -15.5 -110.5t-45.5 -73.5q-47 -46 -132 -55q-29 -25 -43 -51.5t-14 -51.5
q0 -27 15.5 -40.5t43.5 -13.5q15 0 33.5 2t29.5 4v-38q-19 -5 -38.5 -8t-37.5 -3q-49 0 -73 25.5t-24 64.5z" />
    <glyph glyph-name="Wgrave" unicode="&#x1e80;" horiz-adv-x="857" 
d="M619 78l156 606h56l-177 -684h-71l-150 600l-138 -600h-76l-193 684h60l170 -614l143 614h68zM510 754l-186 136l38 50l171 -157z" />
    <glyph glyph-name="Wacute" unicode="&#x1e82;" horiz-adv-x="857" 
d="M619 78l156 606h56l-177 -684h-71l-150 600l-138 -600h-76l-193 684h60l170 -614l143 614h68zM344 783l171 157l38 -50l-186 -136z" />
    <glyph glyph-name="Wcircumflex" unicode="&#x174;" horiz-adv-x="857" 
d="M619 78l156 606h56l-177 -684h-71l-150 600l-138 -600h-76l-193 684h60l170 -614l143 614h68zM574 774l-22 -20l-124 111l-124 -111l-22 20l116 142h60z" />
    <glyph glyph-name="Wdieresis" unicode="&#x1e84;" horiz-adv-x="857" 
d="M619 78l156 606h56l-177 -684h-71l-150 600l-138 -600h-76l-193 684h60l170 -614l143 614h68zM339 795q-39 0 -39 39v9q0 41 39 41h8q39 0 39 -41v-9q0 -39 -39 -39h-8zM521 795q-39 0 -39 39v9q0 41 39 41h8q39 0 39 -41v-9q0 -39 -39 -39h-8z" />
    <glyph glyph-name="Ygrave" unicode="&#x1ef2;" horiz-adv-x="546" 
d="M463 684h61l-226 -406v-278h-60v281l-216 403h66l184 -351zM324 754l-186 136l38 50l171 -157z" />
    <glyph glyph-name="Yacute" unicode="&#xdd;" horiz-adv-x="546" 
d="M463 684h61l-226 -406v-278h-60v281l-216 403h66l184 -351zM168 783l171 157l38 -50l-186 -136z" />
    <glyph glyph-name="Ycircumflex" unicode="&#x176;" horiz-adv-x="546" 
d="M463 684h61l-226 -406v-278h-60v281l-216 403h66l184 -351zM419 774l-22 -20l-124 111l-124 -111l-22 20l116 142h60z" />
    <glyph glyph-name="Ydieresis" unicode="&#x178;" horiz-adv-x="546" 
d="M463 684h61l-226 -406v-278h-60v281l-216 403h66l184 -351zM178 795q-39 0 -39 39v9q0 41 39 41h8q39 0 39 -41v-9q0 -39 -39 -39h-8zM360 795q-39 0 -39 39v9q0 41 39 41h8q39 0 39 -41v-9q0 -39 -39 -39h-8z" />
    <glyph glyph-name="Zacute" unicode="&#x179;" horiz-adv-x="544" 
d="M56 42l361 590h-360v52h431v-42l-361 -590h365v-52h-436v42zM177 783l171 157l38 -50l-186 -136z" />
    <glyph glyph-name="Zcaron" unicode="&#x17d;" horiz-adv-x="544" 
d="M56 42l361 590h-360v52h431v-42l-361 -590h365v-52h-436v42zM302 762h-60l-116 142l22 20l124 -111l124 111l22 -20z" />
    <glyph glyph-name="Zdotaccent" unicode="&#x17b;" horiz-adv-x="544" 
d="M56 42l361 590h-360v52h431v-42l-361 -590h365v-52h-436v42zM318 831q0 -43 -42 -43h-8q-42 0 -42 43v10q0 43 42 43h8q42 0 42 -43v-10z" />
    <glyph glyph-name="agrave" unicode="&#xe0;" horiz-adv-x="489" 
d="M368 33q-36 -22 -77 -34.5t-81 -12.5q-72 0 -118 38t-46 114q0 67 38 103q26 24 63.5 34.5t94.5 10.5h118v40q0 36 -7.5 60t-21.5 38q-15 16 -40 22.5t-59 6.5q-33 0 -68.5 -4t-68.5 -12l-4 48q35 9 73 14t73 5q99 0 141 -43q20 -20 30 -51t10 -76v-334h-47zM360 239
h-109q-47 0 -74.5 -7t-44.5 -21q-28 -24 -28 -72q0 -54 31 -78t85 -24q34 0 73 10t67 26v166zM326 574l-186 136l38 50l171 -157z" />
    <glyph glyph-name="aacute" unicode="&#xe1;" horiz-adv-x="489" 
d="M368 33q-36 -22 -77 -34.5t-81 -12.5q-72 0 -118 38t-46 114q0 67 38 103q26 24 63.5 34.5t94.5 10.5h118v40q0 36 -7.5 60t-21.5 38q-15 16 -40 22.5t-59 6.5q-33 0 -68.5 -4t-68.5 -12l-4 48q35 9 73 14t73 5q99 0 141 -43q20 -20 30 -51t10 -76v-334h-47zM360 239
h-109q-47 0 -74.5 -7t-44.5 -21q-28 -24 -28 -72q0 -54 31 -78t85 -24q34 0 73 10t67 26v166zM140 603l171 157l38 -50l-186 -136z" />
    <glyph glyph-name="acircumflex" unicode="&#xe2;" horiz-adv-x="489" 
d="M368 33q-36 -22 -77 -34.5t-81 -12.5q-72 0 -118 38t-46 114q0 67 38 103q26 24 63.5 34.5t94.5 10.5h118v40q0 36 -7.5 60t-21.5 38q-15 16 -40 22.5t-59 6.5q-33 0 -68.5 -4t-68.5 -12l-4 48q35 9 73 14t73 5q99 0 141 -43q20 -20 30 -51t10 -76v-334h-47zM360 239
h-109q-47 0 -74.5 -7t-44.5 -21q-28 -24 -28 -72q0 -54 31 -78t85 -24q34 0 73 10t67 26v166zM390 604l-22 -20l-124 111l-124 -111l-22 20l116 142h60z" />
    <glyph glyph-name="atilde" unicode="&#xe3;" horiz-adv-x="489" 
d="M368 33q-36 -22 -77 -34.5t-81 -12.5q-72 0 -118 38t-46 114q0 67 38 103q26 24 63.5 34.5t94.5 10.5h118v40q0 36 -7.5 60t-21.5 38q-15 16 -40 22.5t-59 6.5q-33 0 -68.5 -4t-68.5 -12l-4 48q35 9 73 14t73 5q99 0 141 -43q20 -20 30 -51t10 -76v-334h-47zM360 239
h-109q-47 0 -74.5 -7t-44.5 -21q-28 -24 -28 -72q0 -54 31 -78t85 -24q34 0 73 10t67 26v166zM310 610q-18 0 -35 6t-33 13.5t-31 14t-30 6.5q-16 0 -25 -10.5t-17 -28.5l-36 7q5 42 24.5 65t51.5 23q19 0 36 -6.5t32.5 -14t30.5 -13.5t30 -6q16 0 25 10.5t17 28.5l36 -7
q-5 -42 -24.5 -65t-51.5 -23z" />
    <glyph glyph-name="adieresis" unicode="&#xe4;" horiz-adv-x="489" 
d="M368 33q-36 -22 -77 -34.5t-81 -12.5q-72 0 -118 38t-46 114q0 67 38 103q26 24 63.5 34.5t94.5 10.5h118v40q0 36 -7.5 60t-21.5 38q-15 16 -40 22.5t-59 6.5q-33 0 -68.5 -4t-68.5 -12l-4 48q35 9 73 14t73 5q99 0 141 -43q20 -20 30 -51t10 -76v-334h-47zM360 239
h-109q-47 0 -74.5 -7t-44.5 -21q-28 -24 -28 -72q0 -54 31 -78t85 -24q34 0 73 10t67 26v166zM149 615q-39 0 -39 39v9q0 41 39 41h8q39 0 39 -41v-9q0 -39 -39 -39h-8zM331 615q-39 0 -39 39v9q0 41 39 41h8q39 0 39 -41v-9q0 -39 -39 -39h-8z" />
    <glyph glyph-name="amacron" unicode="&#x101;" horiz-adv-x="489" 
d="M368 33q-36 -22 -77 -34.5t-81 -12.5q-72 0 -118 38t-46 114q0 67 38 103q26 24 63.5 34.5t94.5 10.5h118v40q0 36 -7.5 60t-21.5 38q-15 16 -40 22.5t-59 6.5q-33 0 -68.5 -4t-68.5 -12l-4 48q35 9 73 14t73 5q99 0 141 -43q20 -20 30 -51t10 -76v-334h-47zM360 239
h-109q-47 0 -74.5 -7t-44.5 -21q-28 -24 -28 -72q0 -54 31 -78t85 -24q34 0 73 10t67 26v166zM126 618v49h243v-49h-243z" />
    <glyph glyph-name="abreve" unicode="&#x103;" horiz-adv-x="489" 
d="M368 33q-36 -22 -77 -34.5t-81 -12.5q-72 0 -118 38t-46 114q0 67 38 103q26 24 63.5 34.5t94.5 10.5h118v40q0 36 -7.5 60t-21.5 38q-15 16 -40 22.5t-59 6.5q-33 0 -68.5 -4t-68.5 -12l-4 48q35 9 73 14t73 5q99 0 141 -43q20 -20 30 -51t10 -76v-334h-47zM360 239
h-109q-47 0 -74.5 -7t-44.5 -21q-28 -24 -28 -72q0 -54 31 -78t85 -24q34 0 73 10t67 26v166zM247 586q-32 0 -55.5 9.5t-38.5 26.5t-22.5 40t-8.5 50h39q6 -32 24.5 -53t61.5 -21t61.5 21t24.5 53h39q-1 -27 -8.5 -50t-22.5 -40t-38.5 -26.5t-55.5 -9.5z" />
    <glyph glyph-name="aring" unicode="&#xe5;" horiz-adv-x="489" 
d="M368 33q-36 -22 -77 -34.5t-81 -12.5q-72 0 -118 38t-46 114q0 67 38 103q26 24 63.5 34.5t94.5 10.5h118v40q0 36 -7.5 60t-21.5 38q-15 16 -40 22.5t-59 6.5q-33 0 -68.5 -4t-68.5 -12l-4 48q35 9 73 14t73 5q99 0 141 -43q20 -20 30 -51t10 -76v-334h-47zM360 239
h-109q-47 0 -74.5 -7t-44.5 -21q-28 -24 -28 -72q0 -54 31 -78t85 -24q34 0 73 10t67 26v166zM356 685q0 -50 -28 -77t-79 -27h-4q-51 0 -79 27t-28 77v4q0 50 28 77t79 27h4q51 0 79 -27t28 -77v-4zM187 685q0 -59 58 -59h3q59 0 59 59v4q0 59 -59 59h-3q-58 0 -58 -59v-4z
" />
    <glyph glyph-name="aringacute" unicode="&#x1fb;" horiz-adv-x="489" 
d="M368 33q-36 -22 -77 -34.5t-81 -12.5q-72 0 -118 38t-46 114q0 67 38 103q26 24 63.5 34.5t94.5 10.5h118v40q0 36 -7.5 60t-21.5 38q-15 16 -40 22.5t-59 6.5q-33 0 -68.5 -4t-68.5 -12l-4 48q35 9 73 14t73 5q99 0 141 -43q20 -20 30 -51t10 -76v-334h-47zM360 239
h-109q-47 0 -74.5 -7t-44.5 -21q-28 -24 -28 -72q0 -54 31 -78t85 -24q34 0 73 10t67 26v166zM353 666q0 -50 -28 -77t-79 -27h-4q-51 0 -79 27t-28 77v4q0 50 28 77t79 27h4q51 0 79 -27t28 -77v-4zM184 666q0 -59 58 -59h3q59 0 59 59v4q0 59 -59 59h-3q-58 0 -58 -59v-4z
M140 826l171 157l38 -50l-186 -136z" />
    <glyph glyph-name="aogonek" unicode="&#x105;" horiz-adv-x="489" 
d="M421 -208q-9 -2 -21.5 -2.5t-20.5 -0.5q-49 0 -74.5 25.5t-25.5 64.5q0 22 8.5 40.5t21.5 33.5t29 27t32 23l-2 30q-36 -22 -77 -34.5t-81 -12.5q-72 0 -118 38t-46 114q0 67 38 103q26 24 63.5 34.5t94.5 10.5h118v40q0 36 -7.5 60t-21.5 38q-15 16 -40 22.5t-59 6.5
q-33 0 -68.5 -4t-68.5 -12l-4 48q35 9 73 14t73 5q99 0 141 -43q20 -20 30 -51t10 -76v-334q-36 -27 -62 -53.5t-26 -60.5q0 -27 17 -40.5t45 -13.5h14t15 1v-41zM360 239h-109q-47 0 -74.5 -7t-44.5 -21q-28 -24 -28 -72q0 -54 31 -78t85 -24q34 0 73 10t67 26v166z" />
    <glyph glyph-name="ae" unicode="&#xe6;" horiz-adv-x="802" 
d="M590 -15q-63 0 -107 17.5t-72 51.5q-41 -32 -95 -50t-106 -18q-72 0 -118 38t-46 114q0 67 38 103q26 24 63.5 34.5t94.5 10.5h118v40q0 36 -7.5 60t-21.5 38q-15 16 -40 22.5t-59 6.5q-33 0 -68.5 -4t-68.5 -12l-4 48q35 9 73 14t73 5q99 0 141 -43q7 -8 13 -16.5
t11 -19.5q25 37 63 57.5t92 20.5q193 0 193 -262v-9q0 -11 -12 -11h-320q1 -43 10.5 -77.5t30 -58.5t53.5 -37t82 -13q31 0 62.5 4t61.5 11l5 -47q-12 -4 -28.5 -7t-34.5 -5.5t-36 -4t-34 -1.5zM220 37q42 0 85 13.5t82 42.5q-27 58 -27 146h-109q-47 0 -74.5 -7t-44.5 -21
q-28 -24 -28 -72q0 -54 31 -78t85 -24zM557 455q-66 0 -100 -43.5t-39 -118.5v-25h275q0 84 -32 135.5t-104 51.5z" />
    <glyph glyph-name="aeacute" unicode="&#x1fd;" horiz-adv-x="802" 
d="M590 -15q-63 0 -107 17.5t-72 51.5q-41 -32 -95 -50t-106 -18q-72 0 -118 38t-46 114q0 67 38 103q26 24 63.5 34.5t94.5 10.5h118v40q0 36 -7.5 60t-21.5 38q-15 16 -40 22.5t-59 6.5q-33 0 -68.5 -4t-68.5 -12l-4 48q35 9 73 14t73 5q99 0 141 -43q7 -8 13 -16.5
t11 -19.5q25 37 63 57.5t92 20.5q193 0 193 -262v-9q0 -11 -12 -11h-320q1 -43 10.5 -77.5t30 -58.5t53.5 -37t82 -13q31 0 62.5 4t61.5 11l5 -47q-12 -4 -28.5 -7t-34.5 -5.5t-36 -4t-34 -1.5zM220 37q42 0 85 13.5t82 42.5q-27 58 -27 146h-109q-47 0 -74.5 -7t-44.5 -21
q-28 -24 -28 -72q0 -54 31 -78t85 -24zM557 455q-66 0 -100 -43.5t-39 -118.5v-25h275q0 84 -32 135.5t-104 51.5zM332 603l171 157l38 -50l-186 -136z" />
    <glyph glyph-name="cacute" unicode="&#x107;" horiz-adv-x="436" 
d="M396 -2q-22 -5 -52 -8.5t-59 -3.5q-116 0 -175.5 61.5t-59.5 192.5q0 133 58.5 198.5t170.5 65.5q29 0 58.5 -4t55.5 -13l-4 -48q-26 7 -52.5 11t-49.5 4q-99 0 -138 -52t-39 -160q0 -107 42.5 -156.5t145.5 -49.5q22 0 49 3t44 7zM155 603l171 157l38 -50l-186 -136z
" />
    <glyph glyph-name="ccedilla" unicode="&#xe7;" horiz-adv-x="436" 
d="M396 -2q-22 -5 -52 -8.5t-59 -3.5h-12t-12 1q-3 -9 -3 -18q0 -18 17.5 -24.5t39 -14t39 -22t17.5 -46.5q0 -34 -23.5 -53.5t-68.5 -19.5q-34 0 -68 9v40q15 -3 31 -5t32 -2q23 0 36.5 6.5t13.5 22.5q0 17 -17 24.5t-38 14.5t-38 17.5t-17 33.5q0 20 13 41
q-88 14 -132.5 74.5t-44.5 174.5q0 133 58.5 198.5t170.5 65.5q29 0 58.5 -4t55.5 -13l-4 -48q-26 7 -52.5 11t-49.5 4q-99 0 -138 -52t-39 -160q0 -107 42.5 -156.5t145.5 -49.5q22 0 49 3t44 7z" />
    <glyph glyph-name="ccircumflex" unicode="&#x109;" horiz-adv-x="436" 
d="M396 -2q-22 -5 -52 -8.5t-59 -3.5q-116 0 -175.5 61.5t-59.5 192.5q0 133 58.5 198.5t170.5 65.5q29 0 58.5 -4t55.5 -13l-4 -48q-26 7 -52.5 11t-49.5 4q-99 0 -138 -52t-39 -160q0 -107 42.5 -156.5t145.5 -49.5q22 0 49 3t44 7zM409 604l-22 -20l-124 111l-124 -111
l-22 20l116 142h60z" />
    <glyph glyph-name="ccaron" unicode="&#x10d;" horiz-adv-x="436" 
d="M396 -2q-22 -5 -52 -8.5t-59 -3.5q-116 0 -175.5 61.5t-59.5 192.5q0 133 58.5 198.5t170.5 65.5q29 0 58.5 -4t55.5 -13l-4 -48q-26 7 -52.5 11t-49.5 4q-99 0 -138 -52t-39 -160q0 -107 42.5 -156.5t145.5 -49.5q22 0 49 3t44 7zM306 592h-60l-116 142l22 20l124 -111
l124 111l22 -20z" />
    <glyph glyph-name="cdotaccent" unicode="&#x10b;" horiz-adv-x="436" 
d="M396 -2q-22 -5 -52 -8.5t-59 -3.5q-116 0 -175.5 61.5t-59.5 192.5q0 133 58.5 198.5t170.5 65.5q29 0 58.5 -4t55.5 -13l-4 -48q-26 7 -52.5 11t-49.5 4q-99 0 -138 -52t-39 -160q0 -107 42.5 -156.5t145.5 -49.5q22 0 49 3t44 7zM317 651q0 -43 -42 -43h-8
q-42 0 -42 43v10q0 43 42 43h8q42 0 42 -43v-10z" />
    <glyph glyph-name="dcaron" unicode="&#x10f;" horiz-adv-x="600" 
d="M250 -14q-200 0 -200 257q0 59 12 107.5t36.5 82.5t62.5 52.5t89 18.5q32 0 67.5 -8.5t68.5 -25.5v245h58v-715h-46l-3 30q-28 -18 -67.5 -31t-77.5 -13zM261 453q-84 0 -117.5 -54.5t-33.5 -154.5q0 -106 33.5 -156.5t109.5 -50.5q32 0 67.5 9t65.5 24v352
q-33 15 -64 23t-61 8zM536 522v96q-19 5 -25.5 14.5t-6.5 23.5v5q0 20 11.5 28t25.5 8h4q18 -1 26.5 -12.5t8.5 -39.5q0 -27 -4.5 -61.5t-13.5 -61.5h-26z" />
    <glyph glyph-name="dcroat" unicode="&#x111;" horiz-adv-x="518" 
d="M444 586v-586h-46l-3 30q-28 -18 -67.5 -31t-77.5 -13q-200 0 -200 257q0 59 12 107.5t36.5 82.5t62.5 52.5t89 18.5q32 0 67.5 -8.5t68.5 -25.5v116h-152v44h152v85h58v-87l77 -7v-35h-77zM261 453q-84 0 -117.5 -54.5t-33.5 -154.5q0 -106 33.5 -156.5t109.5 -50.5
q32 0 67.5 9t65.5 24v352q-33 15 -64 23t-61 8z" />
    <glyph glyph-name="eth" unicode="&#xf0;" horiz-adv-x="535" 
d="M192 607l77 57q-39 42 -87 84l25 27q55 -41 99 -84l84 62l22 -31l-80 -59q77 -88 112.5 -184.5t35.5 -196.5q0 -146 -53.5 -221.5t-162.5 -75.5q-100 0 -155.5 63t-55.5 176q0 115 53 178.5t151 63.5q36 0 73.5 -7.5t69.5 -21.5q-30 104 -106 198l-80 -59zM421 280
q0 28 -2.5 55t-7.5 53q-35 14 -71 22t-68 8q-83 0 -122 -49.5t-39 -139.5q0 -42 8.5 -77.5t27.5 -61.5t47.5 -40.5t69.5 -14.5q45 0 75 17.5t48 49.5t26 77t8 101z" />
    <glyph glyph-name="egrave" unicode="&#xe8;" horiz-adv-x="495" 
d="M416 3q-12 -4 -28.5 -7t-34.5 -5.5t-36 -4t-34 -1.5q-62 0 -106.5 17.5t-72.5 51t-41 81.5t-13 109q0 58 12 106t37 82t62.5 52.5t88.5 18.5q193 0 193 -262v-9q0 -11 -12 -11h-320q1 -43 10.5 -77.5t30 -58.5t53.5 -37t82 -13q31 0 62.5 4t61.5 11zM386 268
q0 84 -32 135.5t-104 51.5t-105.5 -51t-34.5 -136h276zM329 574l-186 136l38 50l171 -157z" />
    <glyph glyph-name="eacute" unicode="&#xe9;" horiz-adv-x="495" 
d="M416 3q-12 -4 -28.5 -7t-34.5 -5.5t-36 -4t-34 -1.5q-62 0 -106.5 17.5t-72.5 51t-41 81.5t-13 109q0 58 12 106t37 82t62.5 52.5t88.5 18.5q193 0 193 -262v-9q0 -11 -12 -11h-320q1 -43 10.5 -77.5t30 -58.5t53.5 -37t82 -13q31 0 62.5 4t61.5 11zM386 268
q0 84 -32 135.5t-104 51.5t-105.5 -51t-34.5 -136h276zM143 603l171 157l38 -50l-186 -136z" />
    <glyph glyph-name="ecircumflex" unicode="&#xea;" horiz-adv-x="495" 
d="M416 3q-12 -4 -28.5 -7t-34.5 -5.5t-36 -4t-34 -1.5q-62 0 -106.5 17.5t-72.5 51t-41 81.5t-13 109q0 58 12 106t37 82t62.5 52.5t88.5 18.5q193 0 193 -262v-9q0 -11 -12 -11h-320q1 -43 10.5 -77.5t30 -58.5t53.5 -37t82 -13q31 0 62.5 4t61.5 11zM386 268
q0 84 -32 135.5t-104 51.5t-105.5 -51t-34.5 -136h276zM393 604l-22 -20l-124 111l-124 -111l-22 20l116 142h60z" />
    <glyph glyph-name="ecaron" unicode="&#x11b;" horiz-adv-x="495" 
d="M416 3q-12 -4 -28.5 -7t-34.5 -5.5t-36 -4t-34 -1.5q-62 0 -106.5 17.5t-72.5 51t-41 81.5t-13 109q0 58 12 106t37 82t62.5 52.5t88.5 18.5q193 0 193 -262v-9q0 -11 -12 -11h-320q1 -43 10.5 -77.5t30 -58.5t53.5 -37t82 -13q31 0 62.5 4t61.5 11zM386 268
q0 84 -32 135.5t-104 51.5t-105.5 -51t-34.5 -136h276zM284 592h-60l-116 142l22 20l124 -111l124 111l22 -20z" />
    <glyph glyph-name="edieresis" unicode="&#xeb;" horiz-adv-x="495" 
d="M416 3q-12 -4 -28.5 -7t-34.5 -5.5t-36 -4t-34 -1.5q-62 0 -106.5 17.5t-72.5 51t-41 81.5t-13 109q0 58 12 106t37 82t62.5 52.5t88.5 18.5q193 0 193 -262v-9q0 -11 -12 -11h-320q1 -43 10.5 -77.5t30 -58.5t53.5 -37t82 -13q31 0 62.5 4t61.5 11zM386 268
q0 84 -32 135.5t-104 51.5t-105.5 -51t-34.5 -136h276zM155 615q-39 0 -39 39v9q0 41 39 41h8q39 0 39 -41v-9q0 -39 -39 -39h-8zM337 615q-39 0 -39 39v9q0 41 39 41h8q39 0 39 -41v-9q0 -39 -39 -39h-8z" />
    <glyph glyph-name="emacron" unicode="&#x113;" horiz-adv-x="495" 
d="M416 3q-12 -4 -28.5 -7t-34.5 -5.5t-36 -4t-34 -1.5q-62 0 -106.5 17.5t-72.5 51t-41 81.5t-13 109q0 58 12 106t37 82t62.5 52.5t88.5 18.5q193 0 193 -262v-9q0 -11 -12 -11h-320q1 -43 10.5 -77.5t30 -58.5t53.5 -37t82 -13q31 0 62.5 4t61.5 11zM386 268
q0 84 -32 135.5t-104 51.5t-105.5 -51t-34.5 -136h276zM126 618v49h243v-49h-243z" />
    <glyph glyph-name="ebreve" unicode="&#x115;" horiz-adv-x="495" 
d="M416 3q-12 -4 -28.5 -7t-34.5 -5.5t-36 -4t-34 -1.5q-62 0 -106.5 17.5t-72.5 51t-41 81.5t-13 109q0 58 12 106t37 82t62.5 52.5t88.5 18.5q193 0 193 -262v-9q0 -11 -12 -11h-320q1 -43 10.5 -77.5t30 -58.5t53.5 -37t82 -13q31 0 62.5 4t61.5 11zM386 268
q0 84 -32 135.5t-104 51.5t-105.5 -51t-34.5 -136h276zM252 586q-32 0 -55.5 9.5t-38.5 26.5t-22.5 40t-8.5 50h39q6 -32 24.5 -53t61.5 -21t61.5 21t24.5 53h39q-1 -27 -8.5 -50t-22.5 -40t-38.5 -26.5t-55.5 -9.5z" />
    <glyph glyph-name="edotaccent" unicode="&#x117;" horiz-adv-x="495" 
d="M416 3q-12 -4 -28.5 -7t-34.5 -5.5t-36 -4t-34 -1.5q-62 0 -106.5 17.5t-72.5 51t-41 81.5t-13 109q0 58 12 106t37 82t62.5 52.5t88.5 18.5q193 0 193 -262v-9q0 -11 -12 -11h-320q1 -43 10.5 -77.5t30 -58.5t53.5 -37t82 -13q31 0 62.5 4t61.5 11zM386 268
q0 84 -32 135.5t-104 51.5t-105.5 -51t-34.5 -136h276zM296 651q0 -43 -42 -43h-8q-42 0 -42 43v10q0 43 42 43h8q42 0 42 -43v-10z" />
    <glyph glyph-name="eogonek" unicode="&#x119;" horiz-adv-x="495" 
d="M250 -121q0 35 14.5 62.5t38.5 44.5q-5 -1 -10 -1h-10q-62 0 -106.5 17.5t-72.5 51t-41 81.5t-13 109q0 58 12 106t37 82t62.5 52.5t88.5 18.5q193 0 193 -262v-9q0 -11 -12 -11h-320q1 -43 10.5 -77.5t30 -58.5t53.5 -37t82 -13q31 0 62.5 4t61.5 11l5 -47
q-24 -5 -48.5 -17.5t-40.5 -29.5q-26 -30 -26 -69q0 -27 15.5 -41t43.5 -14q15 0 33.5 2t29.5 4v-38q-19 -5 -38.5 -8t-37.5 -3q-49 0 -73 25.5t-24 64.5zM386 268q0 84 -32 135.5t-104 51.5t-105.5 -51t-34.5 -136h276z" />
    <glyph glyph-name="gcircumflex" unicode="&#x11d;" horiz-adv-x="499" 
d="M435 325q0 -85 -49.5 -132t-137.5 -47q-49 0 -86 14q-18 -20 -26 -40t-8 -35t7 -23q6 -7 18 -9t34 -2h98q60 0 95.5 -11t57.5 -34q14 -14 23.5 -36.5t9.5 -53.5q0 -32 -10 -58.5t-30 -46.5q-26 -25 -70 -37.5t-112 -12.5q-107 0 -158 35.5t-51 101.5q0 32 15 63t42 54
q-13 11 -18.5 25t-5.5 31q0 26 13.5 56t38.5 53q-31 23 -47.5 59.5t-16.5 85.5q0 85 49.5 132t137.5 47q51 0 91 -17l64 78q11 -6 21.5 -16t16.5 -18l-63 -68q57 -48 57 -138zM248 196q68 0 99.5 33t31.5 96t-31.5 96t-99.5 33t-99.5 -33t-31.5 -96t31.5 -96t99.5 -33z
M184 -4q-15 0 -26 0.5t-20 1.5q-22 -20 -32 -43.5t-10 -46.5q0 -45 35 -70.5t122 -25.5q91 0 126.5 25t35.5 72q0 48 -27 67.5t-98 19.5h-106zM395 604l-22 -20l-124 111l-124 -111l-22 20l116 142h60z" />
    <glyph glyph-name="gbreve" unicode="&#x11f;" horiz-adv-x="499" 
d="M435 325q0 -85 -49.5 -132t-137.5 -47q-49 0 -86 14q-18 -20 -26 -40t-8 -35t7 -23q6 -7 18 -9t34 -2h98q60 0 95.5 -11t57.5 -34q14 -14 23.5 -36.5t9.5 -53.5q0 -32 -10 -58.5t-30 -46.5q-26 -25 -70 -37.5t-112 -12.5q-107 0 -158 35.5t-51 101.5q0 32 15 63t42 54
q-13 11 -18.5 25t-5.5 31q0 26 13.5 56t38.5 53q-31 23 -47.5 59.5t-16.5 85.5q0 85 49.5 132t137.5 47q51 0 91 -17l64 78q11 -6 21.5 -16t16.5 -18l-63 -68q57 -48 57 -138zM248 196q68 0 99.5 33t31.5 96t-31.5 96t-99.5 33t-99.5 -33t-31.5 -96t31.5 -96t99.5 -33z
M184 -4q-15 0 -26 0.5t-20 1.5q-22 -20 -32 -43.5t-10 -46.5q0 -45 35 -70.5t122 -25.5q91 0 126.5 25t35.5 72q0 48 -27 67.5t-98 19.5h-106zM249 586q-32 0 -55.5 9.5t-38.5 26.5t-22.5 40t-8.5 50h39q6 -32 24.5 -53t61.5 -21t61.5 21t24.5 53h39q-1 -27 -8.5 -50
t-22.5 -40t-38.5 -26.5t-55.5 -9.5z" />
    <glyph glyph-name="gdotaccent" unicode="&#x121;" horiz-adv-x="499" 
d="M435 325q0 -85 -49.5 -132t-137.5 -47q-49 0 -86 14q-18 -20 -26 -40t-8 -35t7 -23q6 -7 18 -9t34 -2h98q60 0 95.5 -11t57.5 -34q14 -14 23.5 -36.5t9.5 -53.5q0 -32 -10 -58.5t-30 -46.5q-26 -25 -70 -37.5t-112 -12.5q-107 0 -158 35.5t-51 101.5q0 32 15 63t42 54
q-13 11 -18.5 25t-5.5 31q0 26 13.5 56t38.5 53q-31 23 -47.5 59.5t-16.5 85.5q0 85 49.5 132t137.5 47q51 0 91 -17l64 78q11 -6 21.5 -16t16.5 -18l-63 -68q57 -48 57 -138zM248 196q68 0 99.5 33t31.5 96t-31.5 96t-99.5 33t-99.5 -33t-31.5 -96t31.5 -96t99.5 -33z
M184 -4q-15 0 -26 0.5t-20 1.5q-22 -20 -32 -43.5t-10 -46.5q0 -45 35 -70.5t122 -25.5q91 0 126.5 25t35.5 72q0 48 -27 67.5t-98 19.5h-106zM295 651q0 -43 -42 -43h-8q-42 0 -42 43v10q0 43 42 43h8q42 0 42 -43v-10z" />
    <glyph glyph-name="gcommaaccent" unicode="&#x123;" horiz-adv-x="499" 
d="M435 325q0 -85 -49.5 -132t-137.5 -47q-49 0 -86 14q-18 -20 -26 -40t-8 -35t7 -23q6 -7 18 -9t34 -2h98q60 0 95.5 -11t57.5 -34q14 -14 23.5 -36.5t9.5 -53.5q0 -32 -10 -58.5t-30 -46.5q-26 -25 -70 -37.5t-112 -12.5q-107 0 -158 35.5t-51 101.5q0 32 15 63t42 54
q-13 11 -18.5 25t-5.5 31q0 26 13.5 56t38.5 53q-31 23 -47.5 59.5t-16.5 85.5q0 85 49.5 132t137.5 47q51 0 91 -17l64 78q11 -6 21.5 -16t16.5 -18l-63 -68q57 -48 57 -138zM248 196q68 0 99.5 33t31.5 96t-31.5 96t-99.5 33t-99.5 -33t-31.5 -96t31.5 -96t99.5 -33z
M184 -4q-15 0 -26 0.5t-20 1.5q-22 -20 -32 -43.5t-10 -46.5q0 -45 35 -70.5t122 -25.5q91 0 126.5 25t35.5 72q0 48 -27 67.5t-98 19.5h-106zM255 743v-96q19 -5 25.5 -14.5t6.5 -23.5v-5q0 -20 -11.5 -28t-25.5 -8h-4q-18 1 -26.5 12.5t-8.5 39.5q0 27 4.5 61.5t13.5 61.5
h26z" />
    <glyph glyph-name="hcircumflex" unicode="&#x125;" horiz-adv-x="531" 
d="M132 0h-58v715h58v-258q38 22 80 34.5t84 12.5q39 0 71 -10.5t52 -30.5q21 -21 31 -50t10 -74v-339h-58v324q0 38 -6.5 60.5t-21.5 37.5q-29 29 -87 29q-36 0 -76.5 -10t-78.5 -29v-412zM250 738l-22 -20l-124 111l-124 -111l-22 20l116 142h60z" />
    <glyph glyph-name="hbar" unicode="&#x127;" horiz-adv-x="531" 
d="M132 0h-58v586h-77v35l77 7v87h58v-85h152v-44h-152v-129q38 22 80 34.5t84 12.5q39 0 71 -10.5t52 -30.5q21 -21 31 -50t10 -74v-339h-58v324q0 38 -6.5 60.5t-21.5 37.5q-29 29 -87 29q-36 0 -76.5 -10t-78.5 -29v-412z" />
    <glyph glyph-name="dotlessi" unicode="&#x131;" horiz-adv-x="210" 
d="M134 0h-58v490h58v-490z" />
    <glyph glyph-name="igrave" unicode="&#xec;" horiz-adv-x="210" 
d="M134 0h-58v490h58v-490zM188 574l-186 136l38 50l171 -157z" />
    <glyph glyph-name="iacute" unicode="&#xed;" horiz-adv-x="210" 
d="M134 0h-58v490h58v-490zM2 603l171 157l38 -50l-186 -136z" />
    <glyph glyph-name="icircumflex" unicode="&#xee;" horiz-adv-x="210" 
d="M134 0h-58v490h58v-490zM252 604l-22 -20l-124 111l-124 -111l-22 20l116 142h60z" />
    <glyph glyph-name="itilde" unicode="&#x129;" horiz-adv-x="210" 
d="M134 0h-58v490h58v-490zM172 610q-18 0 -35 6t-33 13.5t-31 14t-30 6.5q-16 0 -25 -10.5t-17 -28.5l-36 7q5 42 24.5 65t51.5 23q19 0 36 -6.5t32.5 -14t30.5 -13.5t30 -6q16 0 25 10.5t17 28.5l36 -7q-5 -42 -24.5 -65t-51.5 -23z" />
    <glyph glyph-name="idieresis" unicode="&#xef;" horiz-adv-x="210" 
d="M134 0h-58v490h58v-490zM11 615q-39 0 -39 39v9q0 41 39 41h8q39 0 39 -41v-9q0 -39 -39 -39h-8zM193 615q-39 0 -39 39v9q0 41 39 41h8q39 0 39 -41v-9q0 -39 -39 -39h-8z" />
    <glyph glyph-name="imacron" unicode="&#x12b;" horiz-adv-x="210" 
d="M134 0h-58v490h58v-490zM-15 618v49h243v-49h-243z" />
    <glyph glyph-name="ibreve" unicode="&#x12d;" horiz-adv-x="210" 
d="M134 0h-58v490h58v-490zM106 586q-32 0 -55.5 9.5t-38.5 26.5t-22.5 40t-8.5 50h39q6 -32 24.5 -53t61.5 -21t61.5 21t24.5 53h39q-1 -27 -8.5 -50t-22.5 -40t-38.5 -26.5t-55.5 -9.5z" />
    <glyph glyph-name="iogonek" unicode="&#x12f;" horiz-adv-x="210" 
d="M-5 -121q0 41 25.5 69.5t55.5 48.5v493h58v-490q-36 -27 -62 -53.5t-26 -60.5q0 -27 17 -40.5t45 -13.5h14t15 1v-41q-9 -2 -21.5 -2.5t-20.5 -0.5q-49 0 -74.5 25.5t-25.5 64.5zM143 628q0 -21 -9.5 -30t-26.5 -9h-4q-17 0 -26.5 9t-9.5 30v3q0 21 9.5 30t26.5 9h4
q17 0 26.5 -9t9.5 -30v-3z" />
    <glyph glyph-name="ij" unicode="&#x133;" horiz-adv-x="420" 
d="M134 0h-58v490h58v-490zM143 628q0 -21 -9.5 -30t-26.5 -9h-4q-17 0 -26.5 9t-9.5 30v3q0 21 9.5 30t26.5 9h4q17 0 26.5 -9t9.5 -30v-3zM286 490h58v-527q0 -53 -9 -90.5t-35 -64.5q-44 -45 -145 -45l-7 50q42 0 69 9t41 24q7 8 12.5 17.5t9 23t5 32t1.5 44.5v527z
M353 628q0 -21 -9.5 -30t-26.5 -9h-4q-17 0 -26.5 9t-9.5 30v3q0 21 9.5 30t26.5 9h4q17 0 26.5 -9t9.5 -30v-3z" />
    <glyph glyph-name="jcircumflex" unicode="&#x135;" horiz-adv-x="210" 
d="M76 490h58v-527q0 -53 -9 -90.5t-35 -64.5q-44 -45 -145 -45l-7 50q42 0 69 9t41 24q7 8 12.5 17.5t9 23t5 32t1.5 44.5v527zM251 604l-22 -20l-124 111l-124 -111l-22 20l116 142h60z" />
    <glyph glyph-name="kcommaaccent" unicode="&#x137;" horiz-adv-x="482" 
d="M132 223l245 267h67l-172 -185l190 -305h-66l-163 264l-101 -110v-154h-58v715h58v-492zM259 -248v96q-19 5 -25.5 14.5t-6.5 23.5v5q0 20 11.5 28t25.5 8h4q18 -1 26.5 -12.5t8.5 -39.5q0 -27 -4.5 -61.5t-13.5 -61.5h-26z" />
    <glyph glyph-name="kgreenlandic" unicode="&#x138;" horiz-adv-x="482" 
d="M132 223l245 267h67l-172 -185l190 -305h-66l-163 264l-101 -110v-154h-58v490h58v-267z" />
    <glyph glyph-name="lacute" unicode="&#x13a;" horiz-adv-x="210" 
d="M134 0h-58v715h58v-715zM2 757l171 157l38 -50l-186 -136z" />
    <glyph glyph-name="lcaron" unicode="&#x13e;" horiz-adv-x="290" 
d="M134 0h-58v715h58v-715zM226 522v96q-19 5 -25.5 14.5t-6.5 23.5v5q0 20 11.5 28t25.5 8h4q18 -1 26.5 -12.5t8.5 -39.5q0 -27 -4.5 -61.5t-13.5 -61.5h-26z" />
    <glyph glyph-name="lcommaaccent" unicode="&#x13c;" horiz-adv-x="210" 
d="M134 0h-58v715h58v-715zM100 -248v96q-19 5 -25.5 14.5t-6.5 23.5v5q0 20 11.5 28t25.5 8h4q18 -1 26.5 -12.5t8.5 -39.5q0 -27 -4.5 -61.5t-13.5 -61.5h-26z" />
    <glyph glyph-name="lslash" unicode="&#x142;" horiz-adv-x="306" 
d="M179 356v-356h-58v318l-76 -50l-25 42l101 66v339h58v-301l102 67l25 -42z" />
    <glyph glyph-name="longs" unicode="&#x17f;" horiz-adv-x="280" 
d="M166 0h-58v444h-90v35l90 11v81q0 45 8 72.5t26 47.5q20 21 50 31t68 10q17 0 36.5 -2t33.5 -4v-49q-14 2 -31 3t-31 1q-57 0 -79 -24q-13 -14 -18 -35t-5 -59v-563z" />
    <glyph glyph-name="ldot" unicode="&#x140;" horiz-adv-x="336" 
d="M134 0h-58v715h58v-715zM312 330q0 -43 -42 -43h-8q-42 0 -42 43v10q0 43 42 43h8q42 0 42 -43v-10z" />
    <glyph glyph-name="nacute" unicode="&#x144;" horiz-adv-x="531" 
d="M120 490l4 -37q40 24 83.5 37.5t88.5 13.5q39 0 71 -10.5t52 -30.5q21 -21 31 -50t10 -74v-339h-58v324q0 38 -6.5 60.5t-21.5 37.5q-29 29 -87 29q-36 0 -76.5 -10t-78.5 -29v-412h-58v490h46zM191 603l171 157l38 -50l-186 -136z" />
    <glyph glyph-name="ncaron" unicode="&#x148;" horiz-adv-x="531" 
d="M120 490l4 -37q40 24 83.5 37.5t88.5 13.5q39 0 71 -10.5t52 -30.5q21 -21 31 -50t10 -74v-339h-58v324q0 38 -6.5 60.5t-21.5 37.5q-29 29 -87 29q-36 0 -76.5 -10t-78.5 -29v-412h-58v490h46zM325 592h-60l-116 142l22 20l124 -111l124 111l22 -20z" />
    <glyph glyph-name="ntilde" unicode="&#xf1;" horiz-adv-x="531" 
d="M120 490l4 -37q40 24 83.5 37.5t88.5 13.5q39 0 71 -10.5t52 -30.5q21 -21 31 -50t10 -74v-339h-58v324q0 38 -6.5 60.5t-21.5 37.5q-29 29 -87 29q-36 0 -76.5 -10t-78.5 -29v-412h-58v490h46zM351 610q-18 0 -35 6t-33 13.5t-31 14t-30 6.5q-16 0 -25 -10.5t-17 -28.5
l-36 7q5 42 24.5 65t51.5 23q19 0 36 -6.5t32.5 -14t30.5 -13.5t30 -6q16 0 25 10.5t17 28.5l36 -7q-5 -42 -24.5 -65t-51.5 -23z" />
    <glyph glyph-name="ncommaaccent" unicode="&#x146;" horiz-adv-x="531" 
d="M120 490l4 -37q40 24 83.5 37.5t88.5 13.5q39 0 71 -10.5t52 -30.5q21 -21 31 -50t10 -74v-339h-58v324q0 38 -6.5 60.5t-21.5 37.5q-29 29 -87 29q-36 0 -76.5 -10t-78.5 -29v-412h-58v490h46zM259 -248v96q-19 5 -25.5 14.5t-6.5 23.5v5q0 20 11.5 28t25.5 8h4
q18 -1 26.5 -12.5t8.5 -39.5q0 -27 -4.5 -61.5t-13.5 -61.5h-26z" />
    <glyph glyph-name="napostrophe" unicode="&#x149;" horiz-adv-x="592" 
d="M181 490l4 -37q40 24 83.5 37.5t88.5 13.5q39 0 71 -10.5t52 -30.5q21 -21 31 -50t10 -74v-339h-58v324q0 38 -6.5 60.5t-21.5 37.5q-29 29 -87 29q-36 0 -76.5 -10t-78.5 -29v-412h-58v490h46zM47 495v115q-21 5 -28.5 15t-7.5 26v5q0 23 11.5 32t27.5 9h4
q21 -1 30.5 -13t9.5 -44q0 -15 -1.5 -33.5t-4 -38t-6.5 -38.5t-8 -35h-27z" />
    <glyph glyph-name="eng" unicode="&#x14b;" horiz-adv-x="531" 
d="M402 324q0 38 -6.5 60.5t-21.5 37.5q-29 29 -87 29q-36 0 -76.5 -10t-78.5 -29v-412h-58v490h46l4 -37q40 24 83.5 37.5t88.5 13.5q39 0 71 -10.5t52 -30.5q21 -21 31 -50t10 -74v-376q0 -53 -9 -90.5t-35 -64.5q-44 -45 -145 -45l-7 50q42 0 69 9t41 24q7 8 12.5 17.5
t9 23t5 32t1.5 44.5v361z" />
    <glyph glyph-name="ograve" unicode="&#xf2;" horiz-adv-x="522" 
d="M110 245q0 -101 33.5 -155t117.5 -54t117.5 54t33.5 155t-33.5 155t-117.5 54t-117.5 -54t-33.5 -155zM50 245q0 125 50.5 192t160.5 67t160.5 -67t50.5 -192t-50.5 -192t-160.5 -67t-160.5 67t-50.5 192zM342 574l-186 136l38 50l171 -157z" />
    <glyph glyph-name="oacute" unicode="&#xf3;" horiz-adv-x="522" 
d="M110 245q0 -101 33.5 -155t117.5 -54t117.5 54t33.5 155t-33.5 155t-117.5 54t-117.5 -54t-33.5 -155zM50 245q0 125 50.5 192t160.5 67t160.5 -67t50.5 -192t-50.5 -192t-160.5 -67t-160.5 67t-50.5 192zM156 603l171 157l38 -50l-186 -136z" />
    <glyph glyph-name="ocircumflex" unicode="&#xf4;" horiz-adv-x="522" 
d="M110 245q0 -101 33.5 -155t117.5 -54t117.5 54t33.5 155t-33.5 155t-117.5 54t-117.5 -54t-33.5 -155zM50 245q0 125 50.5 192t160.5 67t160.5 -67t50.5 -192t-50.5 -192t-160.5 -67t-160.5 67t-50.5 192zM407 604l-22 -20l-124 111l-124 -111l-22 20l116 142h60z" />
    <glyph glyph-name="otilde" unicode="&#xf5;" horiz-adv-x="522" 
d="M110 245q0 -101 33.5 -155t117.5 -54t117.5 54t33.5 155t-33.5 155t-117.5 54t-117.5 -54t-33.5 -155zM50 245q0 125 50.5 192t160.5 67t160.5 -67t50.5 -192t-50.5 -192t-160.5 -67t-160.5 67t-50.5 192zM326 610q-18 0 -35 6t-33 13.5t-31 14t-30 6.5q-16 0 -25 -10.5
t-17 -28.5l-36 7q5 42 24.5 65t51.5 23q19 0 36 -6.5t32.5 -14t30.5 -13.5t30 -6q16 0 25 10.5t17 28.5l36 -7q-5 -42 -24.5 -65t-51.5 -23z" />
    <glyph glyph-name="odieresis" unicode="&#xf6;" horiz-adv-x="522" 
d="M110 245q0 -101 33.5 -155t117.5 -54t117.5 54t33.5 155t-33.5 155t-117.5 54t-117.5 -54t-33.5 -155zM50 245q0 125 50.5 192t160.5 67t160.5 -67t50.5 -192t-50.5 -192t-160.5 -67t-160.5 67t-50.5 192zM166 615q-39 0 -39 39v9q0 41 39 41h8q39 0 39 -41v-9
q0 -39 -39 -39h-8zM348 615q-39 0 -39 39v9q0 41 39 41h8q39 0 39 -41v-9q0 -39 -39 -39h-8z" />
    <glyph glyph-name="omacron" unicode="&#x14d;" horiz-adv-x="522" 
d="M110 245q0 -101 33.5 -155t117.5 -54t117.5 54t33.5 155t-33.5 155t-117.5 54t-117.5 -54t-33.5 -155zM50 245q0 125 50.5 192t160.5 67t160.5 -67t50.5 -192t-50.5 -192t-160.5 -67t-160.5 67t-50.5 192zM139 618v49h243v-49h-243z" />
    <glyph glyph-name="obreve" unicode="&#x14f;" horiz-adv-x="522" 
d="M110 245q0 -101 33.5 -155t117.5 -54t117.5 54t33.5 155t-33.5 155t-117.5 54t-117.5 -54t-33.5 -155zM50 245q0 125 50.5 192t160.5 67t160.5 -67t50.5 -192t-50.5 -192t-160.5 -67t-160.5 67t-50.5 192zM261 586q-32 0 -55.5 9.5t-38.5 26.5t-22.5 40t-8.5 50h39
q6 -32 24.5 -53t61.5 -21t61.5 21t24.5 53h39q-1 -27 -8.5 -50t-22.5 -40t-38.5 -26.5t-55.5 -9.5z" />
    <glyph glyph-name="ohungarumlaut" unicode="&#x151;" horiz-adv-x="522" 
d="M110 245q0 -101 33.5 -155t117.5 -54t117.5 54t33.5 155t-33.5 155t-117.5 54t-117.5 -54t-33.5 -155zM50 245q0 125 50.5 192t160.5 67t160.5 -67t50.5 -192t-50.5 -192t-160.5 -67t-160.5 67t-50.5 192zM97 606l141 185l46 -43l-159 -166zM277 606l141 185l46 -43
l-159 -166z" />
    <glyph glyph-name="oslash" unicode="&#xf8;" horiz-adv-x="522" 
d="M377 477q50 -29 72.5 -88t22.5 -144q0 -125 -50.5 -192t-160.5 -67q-41 0 -72 9l-31 -79h-50l38 98q-50 29 -73 87.5t-23 143.5q0 125 52 192t162 67q38 0 70 -9l31 79h50zM110 245q0 -65 13 -110t43 -70l149 382q-22 7 -54 7q-84 0 -117.5 -54t-33.5 -155zM412 245
q0 64 -13 109t-43 70l-149 -381q22 -7 54 -7q84 0 117.5 54t33.5 155z" />
    <glyph glyph-name="oslashacute" unicode="&#x1ff;" horiz-adv-x="522" 
d="M377 477q50 -29 72.5 -88t22.5 -144q0 -125 -50.5 -192t-160.5 -67q-41 0 -72 9l-31 -79h-50l38 98q-50 29 -73 87.5t-23 143.5q0 125 52 192t162 67q38 0 70 -9l31 79h50zM110 245q0 -65 13 -110t43 -70l149 382q-22 7 -54 7q-84 0 -117.5 -54t-33.5 -155zM412 245
q0 64 -13 109t-43 70l-149 -381q22 -7 54 -7q84 0 117.5 54t33.5 155zM166 603l171 157l38 -50l-186 -136z" />
    <glyph glyph-name="oe" unicode="&#x153;" horiz-adv-x="858" 
d="M778 3q-12 -4 -28.5 -7t-34.5 -5.5t-36 -4t-34 -1.5q-78 0 -127 26.5t-75 77.5q-49 -103 -182 -103q-110 0 -160.5 67t-50.5 192t50.5 192t160.5 67q133 0 182 -103q23 48 65 75t104 27q193 0 193 -262q0 -20 -19 -20h-313q1 -43 10.5 -77.5t30 -58.5t53.5 -37t82 -13
q31 0 62.5 4t61.5 11zM110 245q0 -101 33.5 -155t117.5 -54q83 0 117 53.5t34 154.5v1q0 101 -33.5 155t-117.5 54t-117.5 -54t-33.5 -155zM748 268q0 84 -32 135.5t-104 51.5q-73 0 -106 -51t-34 -136h276z" />
    <glyph glyph-name="thorn" unicode="&#xfe;" horiz-adv-x="515" 
d="M74 -225v940h58v-258q29 19 68 33t77 14q92 0 140 -63t48 -194q0 -75 -15.5 -127t-44.5 -84q-23 -26 -56.5 -38t-74.5 -12q-38 0 -76.5 11.5t-65.5 29.5v-252h-58zM132 77q25 -17 61 -28.5t71 -11.5q79 0 111 53q30 51 30 158q0 112 -36 161q-33 44 -101 44
q-32 0 -68.5 -12t-67.5 -29v-335z" />
    <glyph glyph-name="racute" unicode="&#x155;" horiz-adv-x="314" 
d="M132 0h-58v490h46l5 -42q34 28 72 42t73 14h10.5t13.5 -1v-54q-12 1 -20 1h-14q-38 0 -69.5 -11t-58.5 -30v-409zM109 603l171 157l38 -50l-186 -136z" />
    <glyph glyph-name="rcaron" unicode="&#x159;" horiz-adv-x="314" 
d="M132 0h-58v490h46l5 -42q34 28 72 42t73 14h10.5t13.5 -1v-54q-12 1 -20 1h-14q-38 0 -69.5 -11t-58.5 -30v-409zM230 592h-60l-116 142l22 20l124 -111l124 111l22 -20z" />
    <glyph glyph-name="rcommaaccent" unicode="&#x157;" horiz-adv-x="314" 
d="M132 0h-58v490h46l5 -42q34 28 72 42t73 14h10.5t13.5 -1v-54q-12 1 -20 1h-14q-38 0 -69.5 -11t-58.5 -30v-409zM98 -248v96q-19 5 -25.5 14.5t-6.5 23.5v5q0 20 11.5 28t25.5 8h4q18 -1 26.5 -12.5t8.5 -39.5q0 -27 -4.5 -61.5t-13.5 -61.5h-26z" />
    <glyph glyph-name="sacute" unicode="&#x15b;" horiz-adv-x="416" 
d="M223 504q29 0 62.5 -4.5t58.5 -12.5l-3 -45q-65 14 -117 14q-60 0 -91.5 -20.5t-31.5 -65.5q0 -32 20.5 -50t51 -30.5t66 -22.5t66 -26.5t51 -43t20.5 -70.5q0 -69 -48 -105t-139 -36q-36 0 -71.5 5t-61.5 13l5 46q29 -8 62 -12t63 -4q67 0 101 23t34 67q0 34 -20.5 53
t-51 31.5t-66 22t-66 25.5t-51 41.5t-20.5 69.5q0 69 47.5 103t129.5 34zM122 603l171 157l38 -50l-186 -136z" />
    <glyph glyph-name="scircumflex" unicode="&#x15d;" horiz-adv-x="416" 
d="M223 504q29 0 62.5 -4.5t58.5 -12.5l-3 -45q-65 14 -117 14q-60 0 -91.5 -20.5t-31.5 -65.5q0 -32 20.5 -50t51 -30.5t66 -22.5t66 -26.5t51 -43t20.5 -70.5q0 -69 -48 -105t-139 -36q-36 0 -71.5 5t-61.5 13l5 46q29 -8 62 -12t63 -4q67 0 101 23t34 67q0 34 -20.5 53
t-51 31.5t-66 22t-66 25.5t-51 41.5t-20.5 69.5q0 69 47.5 103t129.5 34zM360 604l-22 -20l-124 111l-124 -111l-22 20l116 142h60z" />
    <glyph glyph-name="scaron" unicode="&#x161;" horiz-adv-x="416" 
d="M223 504q29 0 62.5 -4.5t58.5 -12.5l-3 -45q-65 14 -117 14q-60 0 -91.5 -20.5t-31.5 -65.5q0 -32 20.5 -50t51 -30.5t66 -22.5t66 -26.5t51 -43t20.5 -70.5q0 -69 -48 -105t-139 -36q-36 0 -71.5 5t-61.5 13l5 46q29 -8 62 -12t63 -4q67 0 101 23t34 67q0 34 -20.5 53
t-51 31.5t-66 22t-66 25.5t-51 41.5t-20.5 69.5q0 69 47.5 103t129.5 34zM238 592h-60l-116 142l22 20l124 -111l124 111l22 -20z" />
    <glyph glyph-name="scedilla" unicode="&#x15f;" horiz-adv-x="416" 
d="M223 504q29 0 62.5 -4.5t58.5 -12.5l-3 -45q-65 14 -117 14q-60 0 -91.5 -20.5t-31.5 -65.5q0 -32 20.5 -50t51 -30.5t66 -22.5t66 -26.5t51 -43t20.5 -70.5q0 -65 -43 -100.5t-124 -39.5q-3 -9 -3 -18q0 -18 17.5 -24.5t39 -14t39 -22t17.5 -46.5q0 -34 -23.5 -53.5
t-68.5 -19.5q-34 0 -68 9v40q15 -3 31 -5t32 -2q23 0 36.5 6.5t13.5 22.5q0 17 -17 24.5t-38 14.5t-38 17.5t-17 33.5q0 19 11 36q-32 2 -63 6t-54 12l5 46q29 -8 62 -12t63 -4q67 0 101 23t34 67q0 34 -20.5 53t-51 31.5t-66 22t-66 25.5t-51 41.5t-20.5 69.5
q0 69 47.5 103t129.5 34z" />
    <glyph glyph-name="scommaaccent" unicode="&#x219;" horiz-adv-x="416" 
d="M223 504q29 0 62.5 -4.5t58.5 -12.5l-3 -45q-65 14 -117 14q-60 0 -91.5 -20.5t-31.5 -65.5q0 -32 20.5 -50t51 -30.5t66 -22.5t66 -26.5t51 -43t20.5 -70.5q0 -69 -48 -105t-139 -36q-36 0 -71.5 5t-61.5 13l5 46q29 -8 62 -12t63 -4q67 0 101 23t34 67q0 34 -20.5 53
t-51 31.5t-66 22t-66 25.5t-51 41.5t-20.5 69.5q0 69 47.5 103t129.5 34zM202 -248v96q-19 5 -25.5 14.5t-6.5 23.5v5q0 20 11.5 28t25.5 8h4q18 -1 26.5 -12.5t8.5 -39.5q0 -27 -4.5 -61.5t-13.5 -61.5h-26z" />
    <glyph glyph-name="germandbls" unicode="&#xdf;" horiz-adv-x="613" 
d="M18 444v35l90 11v5q0 60 12.5 104t41.5 74q27 28 66 43.5t85 15.5q84 0 130 -40t46 -102q0 -33 -11.5 -57t-28.5 -42.5t-36.5 -33t-36.5 -28.5t-28.5 -29t-11.5 -34q0 -24 17.5 -39t44 -28t57 -26t57 -31.5t44 -46t17.5 -68.5q0 -65 -45 -102q-24 -20 -58.5 -29.5
t-85.5 -9.5q-29 0 -65.5 5t-65.5 12l3 47q29 -7 63.5 -11.5t63.5 -4.5q73 0 106 27q28 23 28 65q0 30 -17.5 49.5t-44 34t-57.5 27t-57.5 28t-44 38.5t-17.5 58q0 40 24 66t53 48.5t53 47.5t24 63q0 44 -30.5 70t-88.5 26q-35 0 -63 -11.5t-47 -31.5q-21 -23 -29.5 -56.5
t-8.5 -84.5v-498h-58v444h-90z" />
    <glyph glyph-name="tcaron" unicode="&#x165;" horiz-adv-x="344" 
d="M14 444v35l90 11v113q13 4 28.5 7t29.5 5v-125h130v-46h-130v-295q0 -35 3 -55.5t15 -34.5q10 -11 25.5 -16.5t39.5 -5.5q17 0 37.5 2.5t37.5 6.5l4 -47q-18 -6 -42 -9.5t-46 -3.5q-32 0 -57.5 7.5t-41.5 23.5q-17 17 -25 44.5t-8 69.5v313h-90zM239 566v96
q-19 5 -25.5 14.5t-6.5 23.5v5q0 20 11.5 28t25.5 8h4q18 -1 26.5 -12.5t8.5 -39.5q0 -27 -4.5 -61.5t-13.5 -61.5h-26z" />
    <glyph glyph-name="tcommaaccent" unicode="&#x163;" horiz-adv-x="344" 
d="M14 444v35l90 11v113q13 4 28.5 7t29.5 5v-125h130v-46h-130v-295q0 -35 3 -55.5t15 -34.5q10 -11 25.5 -16.5t39.5 -5.5q17 0 37.5 2.5t37.5 6.5l4 -47q-18 -6 -42 -9.5t-46 -3.5q-32 0 -57.5 7.5t-41.5 23.5q-17 17 -25 44.5t-8 69.5v313h-90zM213 -248v96
q-19 5 -25.5 14.5t-6.5 23.5v5q0 20 11.5 28t25.5 8h4q18 -1 26.5 -12.5t8.5 -39.5q0 -27 -4.5 -61.5t-13.5 -61.5h-26z" />
    <glyph glyph-name="uni021B" unicode="&#x21b;" horiz-adv-x="344" 
d="M14 444v35l90 11v113q13 4 28.5 7t29.5 5v-125h130v-46h-130v-295q0 -35 3 -55.5t15 -34.5q10 -11 25.5 -16.5t39.5 -5.5q17 0 37.5 2.5t37.5 6.5l4 -47q-18 -6 -42 -9.5t-46 -3.5q-32 0 -57.5 7.5t-41.5 23.5q-17 17 -25 44.5t-8 69.5v313h-90zM213 -248v96
q-19 5 -25.5 14.5t-6.5 23.5v5q0 20 11.5 28t25.5 8h4q18 -1 26.5 -12.5t8.5 -39.5q0 -27 -4.5 -61.5t-13.5 -61.5h-26z" />
    <glyph glyph-name="tbar" unicode="&#x167;" horiz-adv-x="344" 
d="M14 444v35l90 11v113q13 4 28.5 7t29.5 5v-125h130v-46h-130v-173h120v-44h-120v-78q0 -35 3 -55.5t15 -34.5q10 -11 25.5 -16.5t39.5 -5.5q17 0 37.5 2.5t37.5 6.5l4 -47q-18 -6 -42 -9.5t-46 -3.5q-32 0 -57.5 7.5t-41.5 23.5q-17 17 -25 44.5t-8 69.5v96h-77v35l77 7
v175h-90z" />
    <glyph glyph-name="ugrave" unicode="&#xf9;" horiz-adv-x="529" 
d="M409 0l-4 37q-40 -24 -82.5 -37.5t-87.5 -13.5q-39 0 -71 10.5t-52 30.5q-21 21 -31 50t-10 74v339h58v-324q0 -38 6.5 -60.5t21.5 -37.5q29 -29 87 -29q36 0 75.5 10t77.5 29v412h58v-490h-46zM346 574l-186 136l38 50l171 -157z" />
    <glyph glyph-name="uacute" unicode="&#xfa;" horiz-adv-x="529" 
d="M409 0l-4 37q-40 -24 -82.5 -37.5t-87.5 -13.5q-39 0 -71 10.5t-52 30.5q-21 21 -31 50t-10 74v339h58v-324q0 -38 6.5 -60.5t21.5 -37.5q29 -29 87 -29q36 0 75.5 10t77.5 29v412h58v-490h-46zM160 603l171 157l38 -50l-186 -136z" />
    <glyph glyph-name="ucircumflex" unicode="&#xfb;" horiz-adv-x="529" 
d="M409 0l-4 37q-40 -24 -82.5 -37.5t-87.5 -13.5q-39 0 -71 10.5t-52 30.5q-21 21 -31 50t-10 74v339h58v-324q0 -38 6.5 -60.5t21.5 -37.5q29 -29 87 -29q36 0 75.5 10t77.5 29v412h58v-490h-46zM410 604l-22 -20l-124 111l-124 -111l-22 20l116 142h60z" />
    <glyph glyph-name="utilde" unicode="&#x169;" horiz-adv-x="529" 
d="M409 0l-4 37q-40 -24 -82.5 -37.5t-87.5 -13.5q-39 0 -71 10.5t-52 30.5q-21 21 -31 50t-10 74v339h58v-324q0 -38 6.5 -60.5t21.5 -37.5q29 -29 87 -29q36 0 75.5 10t77.5 29v412h58v-490h-46zM336 610q-18 0 -35 6t-33 13.5t-31 14t-30 6.5q-16 0 -25 -10.5t-17 -28.5
l-36 7q5 42 24.5 65t51.5 23q19 0 36 -6.5t32.5 -14t30.5 -13.5t30 -6q16 0 25 10.5t17 28.5l36 -7q-5 -42 -24.5 -65t-51.5 -23z" />
    <glyph glyph-name="udieresis" unicode="&#xfc;" horiz-adv-x="529" 
d="M409 0l-4 37q-40 -24 -82.5 -37.5t-87.5 -13.5q-39 0 -71 10.5t-52 30.5q-21 21 -31 50t-10 74v339h58v-324q0 -38 6.5 -60.5t21.5 -37.5q29 -29 87 -29q36 0 75.5 10t77.5 29v412h58v-490h-46zM169 615q-39 0 -39 39v9q0 41 39 41h8q39 0 39 -41v-9q0 -39 -39 -39h-8z
M351 615q-39 0 -39 39v9q0 41 39 41h8q39 0 39 -41v-9q0 -39 -39 -39h-8z" />
    <glyph glyph-name="umacron" unicode="&#x16b;" horiz-adv-x="529" 
d="M409 0l-4 37q-40 -24 -82.5 -37.5t-87.5 -13.5q-39 0 -71 10.5t-52 30.5q-21 21 -31 50t-10 74v339h58v-324q0 -38 6.5 -60.5t21.5 -37.5q29 -29 87 -29q36 0 75.5 10t77.5 29v412h58v-490h-46zM143 618v49h243v-49h-243z" />
    <glyph glyph-name="ubreve" unicode="&#x16d;" horiz-adv-x="529" 
d="M409 0l-4 37q-40 -24 -82.5 -37.5t-87.5 -13.5q-39 0 -71 10.5t-52 30.5q-21 21 -31 50t-10 74v339h58v-324q0 -38 6.5 -60.5t21.5 -37.5q29 -29 87 -29q36 0 75.5 10t77.5 29v412h58v-490h-46zM264 586q-32 0 -55.5 9.5t-38.5 26.5t-22.5 40t-8.5 50h39q6 -32 24.5 -53
t61.5 -21t61.5 21t24.5 53h39q-1 -27 -8.5 -50t-22.5 -40t-38.5 -26.5t-55.5 -9.5z" />
    <glyph glyph-name="uring" unicode="&#x16f;" horiz-adv-x="529" 
d="M409 0l-4 37q-40 -24 -82.5 -37.5t-87.5 -13.5q-39 0 -71 10.5t-52 30.5q-21 21 -31 50t-10 74v339h58v-324q0 -38 6.5 -60.5t21.5 -37.5q29 -29 87 -29q36 0 75.5 10t77.5 29v412h58v-490h-46zM373 685q0 -50 -28 -77t-79 -27h-4q-51 0 -79 27t-28 77v4q0 50 28 77
t79 27h4q51 0 79 -27t28 -77v-4zM204 685q0 -59 58 -59h3q59 0 59 59v4q0 59 -59 59h-3q-58 0 -58 -59v-4z" />
    <glyph glyph-name="uhungarumlaut" unicode="&#x171;" horiz-adv-x="529" 
d="M409 0l-4 37q-40 -24 -82.5 -37.5t-87.5 -13.5q-39 0 -71 10.5t-52 30.5q-21 21 -31 50t-10 74v339h58v-324q0 -38 6.5 -60.5t21.5 -37.5q29 -29 87 -29q36 0 75.5 10t77.5 29v412h58v-490h-46zM101 606l141 185l46 -43l-159 -166zM281 606l141 185l46 -43l-159 -166z
" />
    <glyph glyph-name="uogonek" unicode="&#x173;" horiz-adv-x="529" 
d="M316 -121q0 22 8.5 40.5t22 33.5t30 27.5t31.5 23.5l-3 33q-40 -24 -82.5 -37.5t-87.5 -13.5q-39 0 -71 10.5t-52 30.5q-21 21 -31 50t-10 74v339h58v-324q0 -38 6.5 -60.5t21.5 -37.5q29 -29 87 -29q36 0 75.5 10t77.5 29v412h58v-490q-36 -27 -62 -53.5t-26 -60.5
q0 -27 17 -40.5t45 -13.5h14t15 1v-41q-9 -2 -21.5 -2.5t-20.5 -0.5q-49 0 -74.5 25.5t-25.5 64.5z" />
    <glyph glyph-name="wgrave" unicode="&#x1e81;" horiz-adv-x="683" 
d="M371 490l131 -432l108 432h55l-131 -490h-66l-127 415l-113 -415h-67l-143 490h60l118 -426l114 426h61zM433 574l-186 136l38 50l171 -157z" />
    <glyph glyph-name="wacute" unicode="&#x1e83;" horiz-adv-x="683" 
d="M371 490l131 -432l108 432h55l-131 -490h-66l-127 415l-113 -415h-67l-143 490h60l118 -426l114 426h61zM247 603l171 157l38 -50l-186 -136z" />
    <glyph glyph-name="wcircumflex" unicode="&#x175;" horiz-adv-x="683" 
d="M371 490l131 -432l108 432h55l-131 -490h-66l-127 415l-113 -415h-67l-143 490h60l118 -426l114 426h61zM487 604l-22 -20l-124 111l-124 -111l-22 20l116 142h60z" />
    <glyph glyph-name="wdieresis" unicode="&#x1e85;" horiz-adv-x="683" 
d="M371 490l131 -432l108 432h55l-131 -490h-66l-127 415l-113 -415h-67l-143 490h60l118 -426l114 426h61zM246 615q-39 0 -39 39v9q0 41 39 41h8q39 0 39 -41v-9q0 -39 -39 -39h-8zM428 615q-39 0 -39 39v9q0 41 39 41h8q39 0 39 -41v-9q0 -39 -39 -39h-8z" />
    <glyph glyph-name="ygrave" unicode="&#x1ef3;" horiz-adv-x="529" 
d="M235 -14q-39 0 -71 10.5t-52 30.5q-21 21 -31 50t-10 74v339h58v-324q0 -38 6.5 -60.5t21.5 -37.5q29 -29 87 -29q36 0 75.5 10t77.5 29v412h58v-545q0 -50 -9 -82.5t-31 -55.5q-45 -46 -146 -46q-15 0 -36 1.5t-37 5.5l-7 49q14 -2 34.5 -3.5t35.5 -1.5q77 0 108 27
q16 14 23 37.5t7 70.5v85q-38 -22 -79 -34t-83 -12zM326 574l-186 136l38 50l171 -157z" />
    <glyph glyph-name="yacute" unicode="&#xfd;" horiz-adv-x="529" 
d="M235 -14q-39 0 -71 10.5t-52 30.5q-21 21 -31 50t-10 74v339h58v-324q0 -38 6.5 -60.5t21.5 -37.5q29 -29 87 -29q36 0 75.5 10t77.5 29v412h58v-545q0 -50 -9 -82.5t-31 -55.5q-45 -46 -146 -46q-15 0 -36 1.5t-37 5.5l-7 49q14 -2 34.5 -3.5t35.5 -1.5q77 0 108 27
q16 14 23 37.5t7 70.5v85q-38 -22 -79 -34t-83 -12zM160 603l171 157l38 -50l-186 -136z" />
    <glyph glyph-name="ycircumflex" unicode="&#x177;" horiz-adv-x="529" 
d="M235 -14q-39 0 -71 10.5t-52 30.5q-21 21 -31 50t-10 74v339h58v-324q0 -38 6.5 -60.5t21.5 -37.5q29 -29 87 -29q36 0 75.5 10t77.5 29v412h58v-545q0 -50 -9 -82.5t-31 -55.5q-45 -46 -146 -46q-15 0 -36 1.5t-37 5.5l-7 49q14 -2 34.5 -3.5t35.5 -1.5q77 0 108 27
q16 14 23 37.5t7 70.5v85q-38 -22 -79 -34t-83 -12zM410 604l-22 -20l-124 111l-124 -111l-22 20l116 142h60z" />
    <glyph glyph-name="ydieresis" unicode="&#xff;" horiz-adv-x="529" 
d="M235 -14q-39 0 -71 10.5t-52 30.5q-21 21 -31 50t-10 74v339h58v-324q0 -38 6.5 -60.5t21.5 -37.5q29 -29 87 -29q36 0 75.5 10t77.5 29v412h58v-545q0 -50 -9 -82.5t-31 -55.5q-45 -46 -146 -46q-15 0 -36 1.5t-37 5.5l-7 49q14 -2 34.5 -3.5t35.5 -1.5q77 0 108 27
q16 14 23 37.5t7 70.5v85q-38 -22 -79 -34t-83 -12zM169 615q-39 0 -39 39v9q0 41 39 41h8q39 0 39 -41v-9q0 -39 -39 -39h-8zM351 615q-39 0 -39 39v9q0 41 39 41h8q39 0 39 -41v-9q0 -39 -39 -39h-8z" />
    <glyph glyph-name="zacute" unicode="&#x17a;" horiz-adv-x="417" 
d="M42 0v32l267 412h-263v46h333v-33l-264 -412h268v-45h-341zM114 603l171 157l38 -50l-186 -136z" />
    <glyph glyph-name="zcaron" unicode="&#x17e;" horiz-adv-x="417" 
d="M42 0v32l267 412h-263v46h333v-33l-264 -412h268v-45h-341zM238 592h-60l-116 142l22 20l124 -111l124 111l22 -20z" />
    <glyph glyph-name="zdotaccent" unicode="&#x17c;" horiz-adv-x="417" 
d="M42 0v32l267 412h-263v46h333v-33l-264 -412h268v-45h-341zM262 651q0 -43 -42 -43h-8q-42 0 -42 43v10q0 43 42 43h8q42 0 42 -43v-10z" />
    <glyph glyph-name="apple" horiz-adv-x="606" 
d="M235 210v67h205v69h-205v203h271v-68h-202v-67h202v-204h-271zM168 618v-550h75v-68h-143v684h406v-66h-338z" />
    </font>
</defs>
</svg>
